<mxfile host="65bd71144e">
    <diagram id="nmASrpGXGb7lgG7hEFg4" name="Now">
        <mxGraphModel dx="474" dy="476" grid="1" gridSize="10" guides="1" tooltips="1" connect="1" arrows="1" fold="1" page="1" pageScale="1" pageWidth="850" pageHeight="1100" background="#ffffff" math="0" shadow="0">
            <root>
                <mxCell id="0"/>
                <mxCell id="1" parent="0"/>
                <mxCell id="7" value="&lt;font color=&quot;#000000&quot;&gt;General Fund&lt;/font&gt;" style="rounded=0;whiteSpace=wrap;html=1;fillColor=#dae8fc;strokeColor=#6c8ebf;" parent="1" vertex="1">
                    <mxGeometry x="40" y="80" width="120" height="60" as="geometry"/>
                </mxCell>
                <mxCell id="8" value="&lt;font color=&quot;#000000&quot;&gt;Tithes&lt;/font&gt;" style="rounded=0;whiteSpace=wrap;html=1;fillColor=#dae8fc;strokeColor=#6c8ebf;" parent="1" vertex="1">
                    <mxGeometry x="40" y="160" width="120" height="60" as="geometry"/>
                </mxCell>
                <mxCell id="9" value="&lt;font color=&quot;#000000&quot;&gt;Childrens Ministry&lt;/font&gt;" style="rounded=0;whiteSpace=wrap;html=1;fillColor=#dae8fc;strokeColor=#6c8ebf;" parent="1" vertex="1">
                    <mxGeometry x="40" y="240" width="120" height="60" as="geometry"/>
                </mxCell>
                <mxCell id="10" value="&lt;font color=&quot;#000000&quot;&gt;Missions&lt;/font&gt;" style="rounded=0;whiteSpace=wrap;html=1;fillColor=#dae8fc;strokeColor=#6c8ebf;" parent="1" vertex="1">
                    <mxGeometry x="40" y="320" width="120" height="60" as="geometry"/>
                </mxCell>
                <mxCell id="11" value="&lt;font color=&quot;#000000&quot;&gt;Discipleship&lt;/font&gt;" style="rounded=0;whiteSpace=wrap;html=1;fillColor=#dae8fc;strokeColor=#6c8ebf;" parent="1" vertex="1">
                    <mxGeometry x="40" y="400" width="120" height="60" as="geometry"/>
                </mxCell>
                <mxCell id="12" value="&lt;font color=&quot;#000000&quot;&gt;Misc.&lt;/font&gt;" style="rounded=0;whiteSpace=wrap;html=1;fillColor=#dae8fc;strokeColor=#6c8ebf;" parent="1" vertex="1">
                    <mxGeometry x="40" y="480" width="120" height="60" as="geometry"/>
                </mxCell>
                <mxCell id="13" value="&lt;font color=&quot;#000000&quot;&gt;OASIS&lt;/font&gt;" style="rounded=0;whiteSpace=wrap;html=1;fillColor=#ffe6cc;strokeColor=#d79b00;" parent="1" vertex="1">
                    <mxGeometry x="90" y="550" width="120" height="30" as="geometry"/>
                </mxCell>
                <mxCell id="15" value="&lt;font color=&quot;#000000&quot;&gt;Media/Worship&lt;/font&gt;" style="rounded=0;whiteSpace=wrap;html=1;fillColor=#ffe6cc;strokeColor=#d79b00;" parent="1" vertex="1">
                    <mxGeometry x="90" y="590" width="120" height="30" as="geometry"/>
                </mxCell>
                <mxCell id="16" value="&lt;font color=&quot;#000000&quot;&gt;Men's Ministries&lt;/font&gt;" style="rounded=0;whiteSpace=wrap;html=1;fillColor=#ffe6cc;strokeColor=#d79b00;" parent="1" vertex="1">
                    <mxGeometry x="90" y="630" width="120" height="30" as="geometry"/>
                </mxCell>
                <mxCell id="17" value="&lt;font color=&quot;#000000&quot;&gt;Women's Ministries&lt;/font&gt;" style="rounded=0;whiteSpace=wrap;html=1;fillColor=#ffe6cc;strokeColor=#d79b00;" parent="1" vertex="1">
                    <mxGeometry x="90" y="670" width="120" height="30" as="geometry"/>
                </mxCell>
                <mxCell id="18" value="&lt;font color=&quot;#000000&quot;&gt;Outreach&lt;/font&gt;" style="rounded=0;whiteSpace=wrap;html=1;fillColor=#dae8fc;strokeColor=#6c8ebf;" parent="1" vertex="1">
                    <mxGeometry x="40" y="721" width="120" height="60" as="geometry"/>
                </mxCell>
                <mxCell id="19" value="&lt;font color=&quot;#000000&quot;&gt;Evangelism/Heart To Heart&lt;/font&gt;" style="rounded=0;whiteSpace=wrap;html=1;fillColor=#ffe6cc;strokeColor=#d79b00;" parent="1" vertex="1">
                    <mxGeometry x="90" y="796" width="120" height="30" as="geometry"/>
                </mxCell>
                <mxCell id="20" value="&lt;font color=&quot;#000000&quot;&gt;KAVAH&lt;/font&gt;" style="rounded=0;whiteSpace=wrap;html=1;fillColor=#ffe6cc;strokeColor=#d79b00;" parent="1" vertex="1">
                    <mxGeometry x="90" y="836" width="120" height="30" as="geometry"/>
                </mxCell>
                <mxCell id="21" value="&lt;font color=&quot;#000000&quot;&gt;Recovery Mill&lt;/font&gt;" style="rounded=0;whiteSpace=wrap;html=1;fillColor=#ffe6cc;strokeColor=#d79b00;" parent="1" vertex="1">
                    <mxGeometry x="90" y="876" width="120" height="30" as="geometry"/>
                </mxCell>
                <mxCell id="22" value="&lt;font color=&quot;#000000&quot;&gt;Single Moms&lt;/font&gt;" style="rounded=0;whiteSpace=wrap;html=1;fillColor=#ffe6cc;strokeColor=#d79b00;" parent="1" vertex="1">
                    <mxGeometry x="90" y="916" width="120" height="30" as="geometry"/>
                </mxCell>
                <mxCell id="23" value="" style="shape=document;whiteSpace=wrap;html=1;boundedLbl=1;fontColor=#000000;fillColor=#E3E3E3;" parent="1" vertex="1">
                    <mxGeometry x="180" y="80" width="620" height="380" as="geometry"/>
                </mxCell>
                <mxCell id="24" value="Report" style="text;strokeColor=none;align=center;fillColor=none;html=1;verticalAlign=middle;whiteSpace=wrap;rounded=0;fontColor=#000000;fontSize=24;" parent="1" vertex="1">
                    <mxGeometry x="180" y="80" width="670" height="30" as="geometry"/>
                </mxCell>
                <mxCell id="25" value="&lt;font style=&quot;font-size: 18px;&quot;&gt;Income&lt;/font&gt;" style="text;strokeColor=none;align=center;fillColor=none;html=1;verticalAlign=middle;whiteSpace=wrap;rounded=0;fontColor=#000000;fontSize=18;" parent="1" vertex="1">
                    <mxGeometry x="180" y="110" width="330" height="30" as="geometry"/>
                </mxCell>
                <mxCell id="49" value="&lt;font style=&quot;font-size: 12px;&quot;&gt;Accounts&lt;/font&gt;" style="text;strokeColor=none;align=left;fillColor=none;html=1;verticalAlign=middle;whiteSpace=wrap;rounded=0;fontColor=#000000;fontSize=12;" parent="1" vertex="1">
                    <mxGeometry x="180" y="140" width="102.41379310344827" height="10" as="geometry"/>
                </mxCell>
                <mxCell id="50" value="&lt;font style=&quot;font-size: 12px;&quot;&gt;General Fund&lt;/font&gt;" style="text;strokeColor=none;align=left;fillColor=none;html=1;verticalAlign=middle;whiteSpace=wrap;rounded=0;fontColor=#000000;fontSize=12;rotation=0;" parent="1" vertex="1">
                    <mxGeometry x="191.3793103448276" y="154" width="110" height="16" as="geometry"/>
                </mxCell>
                <mxCell id="51" value="&lt;font style=&quot;font-size: 12px;&quot;&gt;Tithes&lt;/font&gt;" style="text;strokeColor=none;align=left;fillColor=none;html=1;verticalAlign=middle;whiteSpace=wrap;rounded=0;fontColor=#000000;fontSize=12;rotation=0;" parent="1" vertex="1">
                    <mxGeometry x="191.3793103448276" y="170" width="110" height="16" as="geometry"/>
                </mxCell>
                <mxCell id="52" value="&lt;font style=&quot;font-size: 12px;&quot;&gt;Children's Ministry&lt;/font&gt;" style="text;strokeColor=none;align=left;fillColor=none;html=1;verticalAlign=middle;whiteSpace=wrap;rounded=0;fontColor=#000000;fontSize=12;rotation=0;" parent="1" vertex="1">
                    <mxGeometry x="191.38" y="218" width="110" height="16" as="geometry"/>
                </mxCell>
                <mxCell id="53" value="&lt;font style=&quot;font-size: 12px;&quot;&gt;Missions&lt;/font&gt;" style="text;strokeColor=none;align=left;fillColor=none;html=1;verticalAlign=middle;whiteSpace=wrap;rounded=0;fontColor=#000000;fontSize=12;rotation=0;" parent="1" vertex="1">
                    <mxGeometry x="191.38" y="186" width="110" height="16" as="geometry"/>
                </mxCell>
                <mxCell id="54" value="&lt;font style=&quot;font-size: 12px;&quot;&gt;Discipleship&lt;/font&gt;" style="text;strokeColor=none;align=left;fillColor=none;html=1;verticalAlign=middle;whiteSpace=wrap;rounded=0;fontColor=#000000;fontSize=12;rotation=0;" parent="1" vertex="1">
                    <mxGeometry x="191.3793103448276" y="202" width="110" height="16" as="geometry"/>
                </mxCell>
                <mxCell id="55" value="&lt;font style=&quot;font-size: 12px;&quot;&gt;Misc.&lt;/font&gt;" style="text;strokeColor=none;align=left;fillColor=none;html=1;verticalAlign=middle;whiteSpace=wrap;rounded=0;fontColor=#000000;fontSize=12;rotation=0;" parent="1" vertex="1">
                    <mxGeometry x="191.3793103448276" y="234" width="110" height="16" as="geometry"/>
                </mxCell>
                <mxCell id="56" value="&lt;font style=&quot;font-size: 12px;&quot;&gt;Outreach&lt;/font&gt;" style="text;strokeColor=none;align=left;fillColor=none;html=1;verticalAlign=middle;whiteSpace=wrap;rounded=0;fontColor=#000000;fontSize=12;rotation=0;" parent="1" vertex="1">
                    <mxGeometry x="191.3793103448276" y="304" width="110" height="16" as="geometry"/>
                </mxCell>
                <mxCell id="57" value="&lt;font style=&quot;font-size: 12px;&quot;&gt;Amount&lt;/font&gt;" style="text;strokeColor=none;align=left;fillColor=none;html=1;verticalAlign=middle;whiteSpace=wrap;rounded=0;fontColor=#000000;fontSize=12;" parent="1" vertex="1">
                    <mxGeometry x="327.9310344827586" y="140" width="68.27586206896551" height="10" as="geometry"/>
                </mxCell>
                <mxCell id="58" value="&lt;font style=&quot;font-size: 12px;&quot;&gt;$50,000.00&lt;/font&gt;" style="text;strokeColor=none;align=left;fillColor=none;html=1;verticalAlign=middle;whiteSpace=wrap;rounded=0;fontColor=#000000;fontSize=12;" parent="1" vertex="1">
                    <mxGeometry x="327.9310344827586" y="154" width="68.27586206896551" height="16" as="geometry"/>
                </mxCell>
                <mxCell id="59" value="&lt;font style=&quot;font-size: 12px;&quot;&gt;Manual Notes&lt;/font&gt;" style="text;strokeColor=none;align=center;fillColor=none;html=1;verticalAlign=middle;whiteSpace=wrap;rounded=0;fontColor=#000000;fontSize=12;" parent="1" vertex="1">
                    <mxGeometry x="400" y="140" width="110" height="10" as="geometry"/>
                </mxCell>
                <mxCell id="61" value="&lt;font style=&quot;font-size: 12px;&quot;&gt;Earned income $300&lt;/font&gt;" style="text;strokeColor=none;align=left;fillColor=none;html=1;verticalAlign=middle;whiteSpace=wrap;rounded=0;fontColor=#000000;fontSize=12;rotation=0;" parent="1" vertex="1">
                    <mxGeometry x="400" y="154" width="150" height="16" as="geometry"/>
                </mxCell>
                <mxCell id="62" value="&lt;font style=&quot;font-size: 12px;&quot;&gt;OASIS: $200&lt;br&gt;&lt;/font&gt;" style="text;strokeColor=none;align=left;fillColor=none;html=1;verticalAlign=middle;whiteSpace=wrap;rounded=0;fontColor=#000000;fontSize=12;rotation=0;" parent="1" vertex="1">
                    <mxGeometry x="400" y="234" width="150" height="16" as="geometry"/>
                </mxCell>
                <mxCell id="63" value="&lt;font style=&quot;font-size: 12px;&quot;&gt;Media/Worship: $500&lt;br&gt;&lt;/font&gt;" style="text;strokeColor=none;align=left;fillColor=none;html=1;verticalAlign=middle;whiteSpace=wrap;rounded=0;fontColor=#000000;fontSize=12;rotation=0;" parent="1" vertex="1">
                    <mxGeometry x="400" y="250" width="150" height="16" as="geometry"/>
                </mxCell>
                <mxCell id="64" value="&lt;font style=&quot;font-size: 12px;&quot;&gt;Men's Ministries: $250&lt;br&gt;&lt;/font&gt;" style="text;strokeColor=none;align=left;fillColor=none;html=1;verticalAlign=middle;whiteSpace=wrap;rounded=0;fontColor=#000000;fontSize=12;rotation=0;" parent="1" vertex="1">
                    <mxGeometry x="400" y="262" width="150" height="16" as="geometry"/>
                </mxCell>
                <mxCell id="66" value="&lt;font style=&quot;font-size: 12px;&quot;&gt;$10,000.00&lt;/font&gt;" style="text;strokeColor=none;align=left;fillColor=none;html=1;verticalAlign=middle;whiteSpace=wrap;rounded=0;fontColor=#000000;fontSize=12;" parent="1" vertex="1">
                    <mxGeometry x="327.9310344827586" y="168" width="68.27586206896551" height="16" as="geometry"/>
                </mxCell>
                <mxCell id="67" value="&lt;font style=&quot;font-size: 12px;&quot;&gt;$2000&lt;/font&gt;" style="text;strokeColor=none;align=left;fillColor=none;html=1;verticalAlign=middle;whiteSpace=wrap;rounded=0;fontColor=#000000;fontSize=12;" parent="1" vertex="1">
                    <mxGeometry x="327.9310344827586" y="182" width="68.27586206896551" height="16" as="geometry"/>
                </mxCell>
                <mxCell id="68" value="&lt;font style=&quot;font-size: 12px;&quot;&gt;$100&lt;/font&gt;" style="text;strokeColor=none;align=left;fillColor=none;html=1;verticalAlign=middle;whiteSpace=wrap;rounded=0;fontColor=#000000;fontSize=12;" parent="1" vertex="1">
                    <mxGeometry x="327.9310344827586" y="198" width="68.27586206896551" height="16" as="geometry"/>
                </mxCell>
                <mxCell id="69" value="&lt;font style=&quot;font-size: 12px;&quot;&gt;$200&lt;/font&gt;" style="text;strokeColor=none;align=left;fillColor=none;html=1;verticalAlign=middle;whiteSpace=wrap;rounded=0;fontColor=#000000;fontSize=12;" parent="1" vertex="1">
                    <mxGeometry x="327.9310344827586" y="214" width="68.27586206896551" height="16" as="geometry"/>
                </mxCell>
                <mxCell id="70" value="&lt;font style=&quot;font-size: 12px;&quot;&gt;$950&lt;/font&gt;" style="text;strokeColor=none;align=left;fillColor=none;html=1;verticalAlign=middle;whiteSpace=wrap;rounded=0;fontColor=#000000;fontSize=12;" parent="1" vertex="1">
                    <mxGeometry x="327.9310344827586" y="230" width="68.27586206896551" height="16" as="geometry"/>
                </mxCell>
                <mxCell id="71" value="&lt;font style=&quot;font-size: 12px;&quot;&gt;$2200&lt;/font&gt;" style="text;strokeColor=none;align=left;fillColor=none;html=1;verticalAlign=middle;whiteSpace=wrap;rounded=0;fontColor=#000000;fontSize=12;" parent="1" vertex="1">
                    <mxGeometry x="325.9310344827586" y="304" width="68.27586206896551" height="16" as="geometry"/>
                </mxCell>
                <mxCell id="72" value="&lt;font style=&quot;font-size: 12px;&quot;&gt;Heart To Heart: $500&lt;br&gt;&lt;/font&gt;" style="text;strokeColor=none;align=left;fillColor=none;html=1;verticalAlign=middle;whiteSpace=wrap;rounded=0;fontColor=#000000;fontSize=12;rotation=0;" parent="1" vertex="1">
                    <mxGeometry x="400" y="304" width="150" height="16" as="geometry"/>
                </mxCell>
                <mxCell id="73" value="&lt;font style=&quot;font-size: 12px;&quot;&gt;KAVAH: $1325&lt;br&gt;&lt;/font&gt;" style="text;strokeColor=none;align=left;fillColor=none;html=1;verticalAlign=middle;whiteSpace=wrap;rounded=0;fontColor=#000000;fontSize=12;rotation=0;" parent="1" vertex="1">
                    <mxGeometry x="400" y="320" width="150" height="16" as="geometry"/>
                </mxCell>
                <mxCell id="74" value="&lt;font style=&quot;font-size: 12px;&quot;&gt;Recovery Mill: $250&lt;br&gt;&lt;/font&gt;" style="text;strokeColor=none;align=left;fillColor=none;html=1;verticalAlign=middle;whiteSpace=wrap;rounded=0;fontColor=#000000;fontSize=12;rotation=0;" parent="1" vertex="1">
                    <mxGeometry x="400" y="332" width="150" height="16" as="geometry"/>
                </mxCell>
                <mxCell id="75" value="&lt;font style=&quot;font-size: 12px;&quot;&gt;Single Moms: $125&lt;br&gt;&lt;/font&gt;" style="text;strokeColor=none;align=left;fillColor=none;html=1;verticalAlign=middle;whiteSpace=wrap;rounded=0;fontColor=#000000;fontSize=12;rotation=0;" parent="1" vertex="1">
                    <mxGeometry x="400" y="348" width="150" height="16" as="geometry"/>
                </mxCell>
                <mxCell id="4e2kasOBrqlHySNibjWR-75" value="In this style the only system reporting is done on the blue account boxes.&amp;nbsp; Additional detail is done manually.&lt;br&gt;&lt;br&gt;The amounts under income are computed automatically, the amounts in manual notes are recorded manually" style="text;strokeColor=none;align=left;fillColor=none;html=1;verticalAlign=middle;whiteSpace=wrap;rounded=0;fontSize=18;fontColor=#000000;" parent="1" vertex="1">
                    <mxGeometry x="250" y="460" width="568.62" height="180" as="geometry"/>
                </mxCell>
            </root>
        </mxGraphModel>
    </diagram>
    <diagram name="Option 1" id="ScF6k00Fasz-PpRhqOA3">
        <mxGraphModel dx="823" dy="683" grid="1" gridSize="10" guides="1" tooltips="1" connect="1" arrows="1" fold="1" page="1" pageScale="1" pageWidth="850" pageHeight="1100" background="#ffffff" math="0" shadow="0">
            <root>
                <mxCell id="9Y_PNz2h46muXe9nvGjb-0"/>
                <mxCell id="9Y_PNz2h46muXe9nvGjb-1" parent="9Y_PNz2h46muXe9nvGjb-0"/>
                <mxCell id="9Y_PNz2h46muXe9nvGjb-2" value="&lt;font color=&quot;#000000&quot;&gt;General Fund&lt;/font&gt;" style="rounded=0;whiteSpace=wrap;html=1;fillColor=#dae8fc;strokeColor=#6c8ebf;" parent="9Y_PNz2h46muXe9nvGjb-1" vertex="1">
                    <mxGeometry x="40" y="80" width="120" height="60" as="geometry"/>
                </mxCell>
                <mxCell id="9Y_PNz2h46muXe9nvGjb-3" value="&lt;font color=&quot;#000000&quot;&gt;Tithes&lt;/font&gt;" style="rounded=0;whiteSpace=wrap;html=1;fillColor=#dae8fc;strokeColor=#6c8ebf;" parent="9Y_PNz2h46muXe9nvGjb-1" vertex="1">
                    <mxGeometry x="40" y="160" width="120" height="60" as="geometry"/>
                </mxCell>
                <mxCell id="9Y_PNz2h46muXe9nvGjb-4" value="&lt;font color=&quot;#000000&quot;&gt;Childrens Ministry&lt;/font&gt;" style="rounded=0;whiteSpace=wrap;html=1;fillColor=#dae8fc;strokeColor=#6c8ebf;" parent="9Y_PNz2h46muXe9nvGjb-1" vertex="1">
                    <mxGeometry x="40" y="240" width="120" height="60" as="geometry"/>
                </mxCell>
                <mxCell id="9Y_PNz2h46muXe9nvGjb-5" value="&lt;font color=&quot;#000000&quot;&gt;Missions&lt;/font&gt;" style="rounded=0;whiteSpace=wrap;html=1;fillColor=#dae8fc;strokeColor=#6c8ebf;" parent="9Y_PNz2h46muXe9nvGjb-1" vertex="1">
                    <mxGeometry x="40" y="320" width="120" height="60" as="geometry"/>
                </mxCell>
                <mxCell id="9Y_PNz2h46muXe9nvGjb-6" value="&lt;font color=&quot;#000000&quot;&gt;Discipleship&lt;/font&gt;" style="rounded=0;whiteSpace=wrap;html=1;fillColor=#dae8fc;strokeColor=#6c8ebf;" parent="9Y_PNz2h46muXe9nvGjb-1" vertex="1">
                    <mxGeometry x="40" y="400" width="120" height="60" as="geometry"/>
                </mxCell>
                <mxCell id="9Y_PNz2h46muXe9nvGjb-7" value="" style="rounded=0;whiteSpace=wrap;html=1;fillColor=#dae8fc;strokeColor=#6c8ebf;labelPosition=center;verticalLabelPosition=middle;align=center;verticalAlign=middle;" parent="9Y_PNz2h46muXe9nvGjb-1" vertex="1">
                    <mxGeometry x="40" y="480" width="190" height="230" as="geometry"/>
                </mxCell>
                <mxCell id="9Y_PNz2h46muXe9nvGjb-8" value="&lt;font color=&quot;#000000&quot;&gt;OASIS&lt;/font&gt;" style="rounded=0;whiteSpace=wrap;html=1;fillColor=#ffe6cc;strokeColor=#d79b00;" parent="9Y_PNz2h46muXe9nvGjb-1" vertex="1">
                    <mxGeometry x="90" y="550" width="120" height="30" as="geometry"/>
                </mxCell>
                <mxCell id="9Y_PNz2h46muXe9nvGjb-9" value="&lt;font color=&quot;#000000&quot;&gt;Media/Worship&lt;/font&gt;" style="rounded=0;whiteSpace=wrap;html=1;fillColor=#ffe6cc;strokeColor=#d79b00;" parent="9Y_PNz2h46muXe9nvGjb-1" vertex="1">
                    <mxGeometry x="90" y="590" width="120" height="30" as="geometry"/>
                </mxCell>
                <mxCell id="9Y_PNz2h46muXe9nvGjb-10" value="&lt;font color=&quot;#000000&quot;&gt;Men's Ministries&lt;/font&gt;" style="rounded=0;whiteSpace=wrap;html=1;fillColor=#ffe6cc;strokeColor=#d79b00;" parent="9Y_PNz2h46muXe9nvGjb-1" vertex="1">
                    <mxGeometry x="90" y="630" width="120" height="30" as="geometry"/>
                </mxCell>
                <mxCell id="9Y_PNz2h46muXe9nvGjb-11" value="&lt;font color=&quot;#000000&quot;&gt;Women's Ministries&lt;/font&gt;" style="rounded=0;whiteSpace=wrap;html=1;fillColor=#ffe6cc;strokeColor=#d79b00;" parent="9Y_PNz2h46muXe9nvGjb-1" vertex="1">
                    <mxGeometry x="90" y="670" width="120" height="30" as="geometry"/>
                </mxCell>
                <mxCell id="9Y_PNz2h46muXe9nvGjb-12" value="" style="rounded=0;whiteSpace=wrap;html=1;fillColor=#dae8fc;strokeColor=#6c8ebf;" parent="9Y_PNz2h46muXe9nvGjb-1" vertex="1">
                    <mxGeometry x="40" y="721" width="190" height="239" as="geometry"/>
                </mxCell>
                <mxCell id="9Y_PNz2h46muXe9nvGjb-13" value="&lt;font color=&quot;#000000&quot;&gt;Evangelism/Heart To Heart&lt;/font&gt;" style="rounded=0;whiteSpace=wrap;html=1;fillColor=#ffe6cc;strokeColor=#d79b00;" parent="9Y_PNz2h46muXe9nvGjb-1" vertex="1">
                    <mxGeometry x="90" y="796" width="120" height="30" as="geometry"/>
                </mxCell>
                <mxCell id="9Y_PNz2h46muXe9nvGjb-14" value="&lt;font color=&quot;#000000&quot;&gt;KAVAH&lt;/font&gt;" style="rounded=0;whiteSpace=wrap;html=1;fillColor=#ffe6cc;strokeColor=#d79b00;" parent="9Y_PNz2h46muXe9nvGjb-1" vertex="1">
                    <mxGeometry x="90" y="836" width="120" height="30" as="geometry"/>
                </mxCell>
                <mxCell id="9Y_PNz2h46muXe9nvGjb-15" value="&lt;font color=&quot;#000000&quot;&gt;Recovery Mill&lt;/font&gt;" style="rounded=0;whiteSpace=wrap;html=1;fillColor=#ffe6cc;strokeColor=#d79b00;" parent="9Y_PNz2h46muXe9nvGjb-1" vertex="1">
                    <mxGeometry x="90" y="876" width="120" height="30" as="geometry"/>
                </mxCell>
                <mxCell id="9Y_PNz2h46muXe9nvGjb-16" value="&lt;font color=&quot;#000000&quot;&gt;Single Moms&lt;/font&gt;" style="rounded=0;whiteSpace=wrap;html=1;fillColor=#ffe6cc;strokeColor=#d79b00;" parent="9Y_PNz2h46muXe9nvGjb-1" vertex="1">
                    <mxGeometry x="90" y="916" width="120" height="30" as="geometry"/>
                </mxCell>
                <mxCell id="9Y_PNz2h46muXe9nvGjb-17" value="" style="shape=document;whiteSpace=wrap;html=1;boundedLbl=1;fontColor=#000000;fillColor=#E3E3E3;" parent="9Y_PNz2h46muXe9nvGjb-1" vertex="1">
                    <mxGeometry x="180" y="80" width="620" height="400" as="geometry"/>
                </mxCell>
                <mxCell id="9Y_PNz2h46muXe9nvGjb-18" value="Report" style="text;strokeColor=none;align=center;fillColor=none;html=1;verticalAlign=middle;whiteSpace=wrap;rounded=0;fontColor=#000000;fontSize=24;" parent="9Y_PNz2h46muXe9nvGjb-1" vertex="1">
                    <mxGeometry x="180" y="80" width="670" height="30" as="geometry"/>
                </mxCell>
                <mxCell id="9Y_PNz2h46muXe9nvGjb-19" value="&lt;font style=&quot;font-size: 18px;&quot;&gt;Income&lt;/font&gt;" style="text;strokeColor=none;align=center;fillColor=none;html=1;verticalAlign=middle;whiteSpace=wrap;rounded=0;fontColor=#000000;fontSize=18;" parent="9Y_PNz2h46muXe9nvGjb-1" vertex="1">
                    <mxGeometry x="180" y="110" width="330" height="30" as="geometry"/>
                </mxCell>
                <mxCell id="9Y_PNz2h46muXe9nvGjb-20" value="&lt;font style=&quot;font-size: 12px;&quot;&gt;Accounts&lt;/font&gt;" style="text;strokeColor=none;align=left;fillColor=none;html=1;verticalAlign=middle;whiteSpace=wrap;rounded=0;fontColor=#000000;fontSize=12;" parent="9Y_PNz2h46muXe9nvGjb-1" vertex="1">
                    <mxGeometry x="180" y="140" width="102.41379310344827" height="10" as="geometry"/>
                </mxCell>
                <mxCell id="9Y_PNz2h46muXe9nvGjb-21" value="&lt;font style=&quot;font-size: 12px;&quot;&gt;General Fund&amp;nbsp; &amp;nbsp; &amp;nbsp; &amp;nbsp; &amp;nbsp; &amp;nbsp; &amp;nbsp; &amp;nbsp; &amp;nbsp; &amp;nbsp;$25,000&lt;/font&gt;" style="text;strokeColor=none;align=left;fillColor=none;html=1;verticalAlign=middle;whiteSpace=wrap;rounded=0;fontColor=#000000;fontSize=12;rotation=0;" parent="9Y_PNz2h46muXe9nvGjb-1" vertex="1">
                    <mxGeometry x="191.38" y="154" width="188.62" height="16" as="geometry"/>
                </mxCell>
                <mxCell id="9Y_PNz2h46muXe9nvGjb-22" value="&lt;font style=&quot;font-size: 12px;&quot;&gt;Tithes&amp;nbsp; &amp;nbsp; &amp;nbsp; &amp;nbsp; &amp;nbsp; &amp;nbsp; &amp;nbsp; &amp;nbsp; &amp;nbsp; &amp;nbsp; &amp;nbsp; &amp;nbsp; &amp;nbsp; &amp;nbsp; &amp;nbsp; &amp;nbsp; &amp;nbsp;$7,000&lt;/font&gt;" style="text;strokeColor=none;align=left;fillColor=none;html=1;verticalAlign=middle;whiteSpace=wrap;rounded=0;fontColor=#000000;fontSize=12;rotation=0;" parent="9Y_PNz2h46muXe9nvGjb-1" vertex="1">
                    <mxGeometry x="191.38" y="189" width="188.62" height="16" as="geometry"/>
                </mxCell>
                <mxCell id="9Y_PNz2h46muXe9nvGjb-23" value="&lt;font style=&quot;font-size: 12px;&quot;&gt;Children's Ministry&amp;nbsp; &amp;nbsp; &amp;nbsp; &amp;nbsp; &amp;nbsp; &amp;nbsp; &amp;nbsp; &amp;nbsp; &amp;nbsp;&lt;/font&gt;$250" style="text;strokeColor=none;align=left;fillColor=none;html=1;verticalAlign=middle;whiteSpace=wrap;rounded=0;fontColor=#000000;fontSize=12;rotation=0;" parent="9Y_PNz2h46muXe9nvGjb-1" vertex="1">
                    <mxGeometry x="191.38" y="237" width="218.62" height="16" as="geometry"/>
                </mxCell>
                <mxCell id="9Y_PNz2h46muXe9nvGjb-24" value="&lt;font style=&quot;font-size: 12px;&quot;&gt;Missions&amp;nbsp; &amp;nbsp; &amp;nbsp; &amp;nbsp; &amp;nbsp; &amp;nbsp; &amp;nbsp; &amp;nbsp; &amp;nbsp; &amp;nbsp; &amp;nbsp; &amp;nbsp; &amp;nbsp; &amp;nbsp; &amp;nbsp;$2,000&lt;/font&gt;" style="text;strokeColor=none;align=left;fillColor=none;html=1;verticalAlign=middle;whiteSpace=wrap;rounded=0;fontColor=#000000;fontSize=12;rotation=0;" parent="9Y_PNz2h46muXe9nvGjb-1" vertex="1">
                    <mxGeometry x="191.38" y="205" width="188.62" height="16" as="geometry"/>
                </mxCell>
                <mxCell id="9Y_PNz2h46muXe9nvGjb-25" value="&lt;font style=&quot;font-size: 12px;&quot;&gt;Discipleship&amp;nbsp; &amp;nbsp; &amp;nbsp; &amp;nbsp; &amp;nbsp; &amp;nbsp; &amp;nbsp; &amp;nbsp; &amp;nbsp; &amp;nbsp; &amp;nbsp; &amp;nbsp; &amp;nbsp; &amp;nbsp;$100&lt;/font&gt;" style="text;strokeColor=none;align=left;fillColor=none;html=1;verticalAlign=middle;whiteSpace=wrap;rounded=0;fontColor=#000000;fontSize=12;rotation=0;" parent="9Y_PNz2h46muXe9nvGjb-1" vertex="1">
                    <mxGeometry x="191.38" y="221" width="208.62" height="16" as="geometry"/>
                </mxCell>
                <mxCell id="9Y_PNz2h46muXe9nvGjb-26" value="&lt;font style=&quot;font-size: 12px;&quot;&gt;Misc.&amp;nbsp; &amp;nbsp; &amp;nbsp; &amp;nbsp; &amp;nbsp; &amp;nbsp; &amp;nbsp; &amp;nbsp; &amp;nbsp; &amp;nbsp; &amp;nbsp; &amp;nbsp; &amp;nbsp; &amp;nbsp; &amp;nbsp; &amp;nbsp; &amp;nbsp; &amp;nbsp; &amp;nbsp;&amp;nbsp;&lt;/font&gt;$950" style="text;strokeColor=none;align=left;fillColor=none;html=1;verticalAlign=middle;whiteSpace=wrap;rounded=0;fontColor=#000000;fontSize=12;rotation=0;" parent="9Y_PNz2h46muXe9nvGjb-1" vertex="1">
                    <mxGeometry x="191.38" y="253" width="238.62" height="16" as="geometry"/>
                </mxCell>
                <mxCell id="9Y_PNz2h46muXe9nvGjb-27" value="&lt;font style=&quot;font-size: 12px;&quot;&gt;Outreach&amp;nbsp; &amp;nbsp; &amp;nbsp; &amp;nbsp; &amp;nbsp; &amp;nbsp; &amp;nbsp; &amp;nbsp; &amp;nbsp; &amp;nbsp; &amp;nbsp; &amp;nbsp; &amp;nbsp; &amp;nbsp; &amp;nbsp;$2200&lt;/font&gt;" style="text;strokeColor=none;align=left;fillColor=none;html=1;verticalAlign=middle;whiteSpace=wrap;rounded=0;fontColor=#000000;fontSize=12;rotation=0;" parent="9Y_PNz2h46muXe9nvGjb-1" vertex="1">
                    <mxGeometry x="191.38" y="343" width="188.62" height="16" as="geometry"/>
                </mxCell>
                <mxCell id="9Y_PNz2h46muXe9nvGjb-28" value="&lt;font style=&quot;font-size: 12px;&quot;&gt;Amount&lt;/font&gt;" style="text;strokeColor=none;align=left;fillColor=none;html=1;verticalAlign=middle;whiteSpace=wrap;rounded=0;fontColor=#000000;fontSize=12;" parent="9Y_PNz2h46muXe9nvGjb-1" vertex="1">
                    <mxGeometry x="327.9310344827586" y="140" width="68.27586206896551" height="10" as="geometry"/>
                </mxCell>
                <mxCell id="9Y_PNz2h46muXe9nvGjb-30" value="&lt;font style=&quot;font-size: 12px;&quot;&gt;Notes&lt;/font&gt;" style="text;strokeColor=none;align=center;fillColor=none;html=1;verticalAlign=middle;whiteSpace=wrap;rounded=0;fontColor=#000000;fontSize=12;" parent="9Y_PNz2h46muXe9nvGjb-1" vertex="1">
                    <mxGeometry x="400" y="140" width="110" height="10" as="geometry"/>
                </mxCell>
                <mxCell id="9Y_PNz2h46muXe9nvGjb-31" value="&lt;font style=&quot;font-size: 12px;&quot;&gt;Earned income&amp;nbsp; &amp;nbsp; &amp;nbsp; &amp;nbsp; &amp;nbsp; &amp;nbsp; &amp;nbsp;$300&lt;/font&gt;" style="text;strokeColor=none;align=left;fillColor=none;html=1;verticalAlign=middle;whiteSpace=wrap;rounded=0;fontColor=#000000;fontSize=12;rotation=0;" parent="9Y_PNz2h46muXe9nvGjb-1" vertex="1">
                    <mxGeometry x="220" y="170" width="190" height="16" as="geometry"/>
                </mxCell>
                <mxCell id="9Y_PNz2h46muXe9nvGjb-32" value="&lt;font style=&quot;font-size: 12px;&quot;&gt;OASIS:&amp;nbsp; &amp;nbsp; &amp;nbsp; &amp;nbsp; &amp;nbsp; &amp;nbsp; &amp;nbsp; &amp;nbsp; &amp;nbsp; &amp;nbsp; &amp;nbsp; &amp;nbsp; &amp;nbsp;$200&lt;br&gt;&lt;/font&gt;" style="text;strokeColor=none;align=left;fillColor=none;html=1;verticalAlign=middle;whiteSpace=wrap;rounded=0;fontColor=#000000;fontSize=12;rotation=0;" parent="9Y_PNz2h46muXe9nvGjb-1" vertex="1">
                    <mxGeometry x="220" y="270" width="190" height="16" as="geometry"/>
                </mxCell>
                <mxCell id="9Y_PNz2h46muXe9nvGjb-33" value="&lt;font style=&quot;font-size: 12px;&quot;&gt;Media/Worship:&amp;nbsp; &amp;nbsp; &amp;nbsp; &amp;nbsp; &amp;nbsp; &amp;nbsp; $500&lt;br&gt;&lt;/font&gt;" style="text;strokeColor=none;align=left;fillColor=none;html=1;verticalAlign=middle;whiteSpace=wrap;rounded=0;fontColor=#000000;fontSize=12;rotation=0;" parent="9Y_PNz2h46muXe9nvGjb-1" vertex="1">
                    <mxGeometry x="220" y="286" width="180" height="16" as="geometry"/>
                </mxCell>
                <mxCell id="9Y_PNz2h46muXe9nvGjb-34" value="&lt;font style=&quot;font-size: 12px;&quot;&gt;Men's Ministries:&amp;nbsp; &amp;nbsp; &amp;nbsp; &amp;nbsp; &amp;nbsp; $250&lt;br&gt;&lt;/font&gt;" style="text;strokeColor=none;align=left;fillColor=none;html=1;verticalAlign=middle;whiteSpace=wrap;rounded=0;fontColor=#000000;fontSize=12;rotation=0;" parent="9Y_PNz2h46muXe9nvGjb-1" vertex="1">
                    <mxGeometry x="220" y="300" width="170" height="16" as="geometry"/>
                </mxCell>
                <mxCell id="9Y_PNz2h46muXe9nvGjb-41" value="&lt;font style=&quot;font-size: 12px;&quot;&gt;Heart To Heart:&amp;nbsp; &amp;nbsp; &amp;nbsp; &amp;nbsp; &amp;nbsp; &amp;nbsp; &amp;nbsp;$500&lt;br&gt;&lt;/font&gt;" style="text;strokeColor=none;align=left;fillColor=none;html=1;verticalAlign=middle;whiteSpace=wrap;rounded=0;fontColor=#000000;fontSize=12;rotation=0;" parent="9Y_PNz2h46muXe9nvGjb-1" vertex="1">
                    <mxGeometry x="220" y="364" width="170" height="16" as="geometry"/>
                </mxCell>
                <mxCell id="9Y_PNz2h46muXe9nvGjb-42" value="&lt;font style=&quot;font-size: 12px;&quot;&gt;KAVAH:&amp;nbsp; &amp;nbsp; &amp;nbsp; &amp;nbsp; &amp;nbsp; &amp;nbsp; &amp;nbsp; &amp;nbsp; &amp;nbsp; &amp;nbsp; &amp;nbsp; &amp;nbsp;$1325&lt;br&gt;&lt;/font&gt;" style="text;strokeColor=none;align=left;fillColor=none;html=1;verticalAlign=middle;whiteSpace=wrap;rounded=0;fontColor=#000000;fontSize=12;rotation=0;" parent="9Y_PNz2h46muXe9nvGjb-1" vertex="1">
                    <mxGeometry x="220" y="380" width="170" height="16" as="geometry"/>
                </mxCell>
                <mxCell id="9Y_PNz2h46muXe9nvGjb-43" value="&lt;font style=&quot;font-size: 12px;&quot;&gt;Recovery Mill:&amp;nbsp; &amp;nbsp; &amp;nbsp; &amp;nbsp; &amp;nbsp; &amp;nbsp; &amp;nbsp; &amp;nbsp;$250&lt;br&gt;&lt;/font&gt;" style="text;strokeColor=none;align=left;fillColor=none;html=1;verticalAlign=middle;whiteSpace=wrap;rounded=0;fontColor=#000000;fontSize=12;rotation=0;" parent="9Y_PNz2h46muXe9nvGjb-1" vertex="1">
                    <mxGeometry x="220" y="396" width="160" height="16" as="geometry"/>
                </mxCell>
                <mxCell id="9Y_PNz2h46muXe9nvGjb-44" value="&lt;font style=&quot;font-size: 12px;&quot;&gt;Single Moms:&amp;nbsp; &amp;nbsp; &amp;nbsp; &amp;nbsp; &amp;nbsp; &amp;nbsp; &amp;nbsp; $125&lt;br&gt;&lt;/font&gt;" style="text;strokeColor=none;align=left;fillColor=none;html=1;verticalAlign=middle;whiteSpace=wrap;rounded=0;fontColor=#000000;fontSize=12;rotation=0;" parent="9Y_PNz2h46muXe9nvGjb-1" vertex="1">
                    <mxGeometry x="225" y="412" width="165" height="16" as="geometry"/>
                </mxCell>
                <mxCell id="9Y_PNz2h46muXe9nvGjb-45" value="In this style, the system reports on both the Parent accounts and the children accounts and the need for manually tracking those differences is removed.&amp;nbsp; &lt;br&gt;&lt;br&gt;However, in order to enter information in, you would have to go to the Parent first, then the child, making reporting easier, but entry more difficult." style="text;strokeColor=none;align=left;fillColor=none;html=1;verticalAlign=middle;whiteSpace=wrap;rounded=0;fontSize=18;fontColor=#000000;" parent="9Y_PNz2h46muXe9nvGjb-1" vertex="1">
                    <mxGeometry x="250" y="480" width="568.62" height="180" as="geometry"/>
                </mxCell>
                <mxCell id="F-noO-6g3V02_AAWK2je-0" value="Misc." style="text;strokeColor=none;align=center;fillColor=none;html=1;verticalAlign=middle;whiteSpace=wrap;rounded=0;fontSize=12;fontColor=#000000;" parent="9Y_PNz2h46muXe9nvGjb-1" vertex="1">
                    <mxGeometry x="40" y="480" width="60" height="30" as="geometry"/>
                </mxCell>
                <mxCell id="F-noO-6g3V02_AAWK2je-1" value="Outreach" style="text;strokeColor=none;align=center;fillColor=none;html=1;verticalAlign=middle;whiteSpace=wrap;rounded=0;fontSize=12;fontColor=#000000;" parent="9Y_PNz2h46muXe9nvGjb-1" vertex="1">
                    <mxGeometry x="40" y="721" width="60" height="30" as="geometry"/>
                </mxCell>
            </root>
        </mxGraphModel>
    </diagram>
    <diagram name="Option 2" id="SRZxrz-ifMK-aE2udyy0">
        <mxGraphModel dx="823" dy="683" grid="1" gridSize="10" guides="1" tooltips="1" connect="1" arrows="1" fold="1" page="1" pageScale="1" pageWidth="850" pageHeight="1100" background="#ffffff" math="0" shadow="0">
            <root>
                <mxCell id="0VsszcQsJgy8Pk3T8Slc-0"/>
                <mxCell id="0VsszcQsJgy8Pk3T8Slc-1" parent="0VsszcQsJgy8Pk3T8Slc-0"/>
                <mxCell id="0VsszcQsJgy8Pk3T8Slc-2" value="&lt;font color=&quot;#000000&quot;&gt;General Fund&lt;/font&gt;" style="rounded=0;whiteSpace=wrap;html=1;fillColor=#dae8fc;strokeColor=#6c8ebf;" parent="0VsszcQsJgy8Pk3T8Slc-1" vertex="1">
                    <mxGeometry x="40" y="80" width="120" height="60" as="geometry"/>
                </mxCell>
                <mxCell id="0VsszcQsJgy8Pk3T8Slc-3" value="&lt;font color=&quot;#000000&quot;&gt;Tithes&lt;/font&gt;" style="rounded=0;whiteSpace=wrap;html=1;fillColor=#dae8fc;strokeColor=#6c8ebf;" parent="0VsszcQsJgy8Pk3T8Slc-1" vertex="1">
                    <mxGeometry x="40" y="160" width="120" height="60" as="geometry"/>
                </mxCell>
                <mxCell id="0VsszcQsJgy8Pk3T8Slc-4" value="&lt;font color=&quot;#000000&quot;&gt;Childrens Ministry&lt;/font&gt;" style="rounded=0;whiteSpace=wrap;html=1;fillColor=#dae8fc;strokeColor=#6c8ebf;" parent="0VsszcQsJgy8Pk3T8Slc-1" vertex="1">
                    <mxGeometry x="40" y="240" width="120" height="60" as="geometry"/>
                </mxCell>
                <mxCell id="0VsszcQsJgy8Pk3T8Slc-5" value="&lt;font color=&quot;#000000&quot;&gt;Missions&lt;/font&gt;" style="rounded=0;whiteSpace=wrap;html=1;fillColor=#dae8fc;strokeColor=#6c8ebf;" parent="0VsszcQsJgy8Pk3T8Slc-1" vertex="1">
                    <mxGeometry x="40" y="320" width="120" height="60" as="geometry"/>
                </mxCell>
                <mxCell id="0VsszcQsJgy8Pk3T8Slc-6" value="&lt;font color=&quot;#000000&quot;&gt;Discipleship&lt;/font&gt;" style="rounded=0;whiteSpace=wrap;html=1;fillColor=#dae8fc;strokeColor=#6c8ebf;" parent="0VsszcQsJgy8Pk3T8Slc-1" vertex="1">
                    <mxGeometry x="40" y="400" width="120" height="60" as="geometry"/>
                </mxCell>
                <mxCell id="0VsszcQsJgy8Pk3T8Slc-7" value="" style="rounded=0;whiteSpace=wrap;html=1;fillColor=#dae8fc;strokeColor=#6c8ebf;labelPosition=center;verticalLabelPosition=middle;align=center;verticalAlign=middle;" parent="0VsszcQsJgy8Pk3T8Slc-1" vertex="1">
                    <mxGeometry x="40" y="480" width="120" height="200" as="geometry"/>
                </mxCell>
                <mxCell id="0VsszcQsJgy8Pk3T8Slc-8" value="&lt;font color=&quot;#000000&quot;&gt;OASIS&lt;/font&gt;" style="rounded=0;whiteSpace=wrap;html=1;fillColor=#ffe6cc;strokeColor=#d79b00;" parent="0VsszcQsJgy8Pk3T8Slc-1" vertex="1">
                    <mxGeometry x="105" y="510" width="120" height="30" as="geometry"/>
                </mxCell>
                <mxCell id="0VsszcQsJgy8Pk3T8Slc-9" value="&lt;font color=&quot;#000000&quot;&gt;Media/Worship&lt;/font&gt;" style="rounded=0;whiteSpace=wrap;html=1;fillColor=#ffe6cc;strokeColor=#d79b00;" parent="0VsszcQsJgy8Pk3T8Slc-1" vertex="1">
                    <mxGeometry x="105" y="550" width="120" height="30" as="geometry"/>
                </mxCell>
                <mxCell id="0VsszcQsJgy8Pk3T8Slc-10" value="&lt;font color=&quot;#000000&quot;&gt;Men's Ministries&lt;/font&gt;" style="rounded=0;whiteSpace=wrap;html=1;fillColor=#ffe6cc;strokeColor=#d79b00;" parent="0VsszcQsJgy8Pk3T8Slc-1" vertex="1">
                    <mxGeometry x="105" y="590" width="120" height="30" as="geometry"/>
                </mxCell>
                <mxCell id="0VsszcQsJgy8Pk3T8Slc-11" value="&lt;font color=&quot;#000000&quot;&gt;Women's Ministries&lt;/font&gt;" style="rounded=0;whiteSpace=wrap;html=1;fillColor=#ffe6cc;strokeColor=#d79b00;" parent="0VsszcQsJgy8Pk3T8Slc-1" vertex="1">
                    <mxGeometry x="105" y="630" width="120" height="30" as="geometry"/>
                </mxCell>
                <mxCell id="0VsszcQsJgy8Pk3T8Slc-12" value="" style="rounded=0;whiteSpace=wrap;html=1;fillColor=#dae8fc;strokeColor=#6c8ebf;" parent="0VsszcQsJgy8Pk3T8Slc-1" vertex="1">
                    <mxGeometry x="40" y="721" width="120" height="209" as="geometry"/>
                </mxCell>
                <mxCell id="0VsszcQsJgy8Pk3T8Slc-13" value="&lt;font color=&quot;#000000&quot;&gt;Evangelism/Heart To Heart&lt;/font&gt;" style="rounded=0;whiteSpace=wrap;html=1;fillColor=#ffe6cc;strokeColor=#d79b00;" parent="0VsszcQsJgy8Pk3T8Slc-1" vertex="1">
                    <mxGeometry x="105" y="765.5" width="120" height="30" as="geometry"/>
                </mxCell>
                <mxCell id="0VsszcQsJgy8Pk3T8Slc-14" value="&lt;font color=&quot;#000000&quot;&gt;KAVAH&lt;/font&gt;" style="rounded=0;whiteSpace=wrap;html=1;fillColor=#ffe6cc;strokeColor=#d79b00;" parent="0VsszcQsJgy8Pk3T8Slc-1" vertex="1">
                    <mxGeometry x="105" y="805.5" width="120" height="30" as="geometry"/>
                </mxCell>
                <mxCell id="0VsszcQsJgy8Pk3T8Slc-15" value="&lt;font color=&quot;#000000&quot;&gt;Recovery Mill&lt;/font&gt;" style="rounded=0;whiteSpace=wrap;html=1;fillColor=#ffe6cc;strokeColor=#d79b00;" parent="0VsszcQsJgy8Pk3T8Slc-1" vertex="1">
                    <mxGeometry x="105" y="845.5" width="120" height="30" as="geometry"/>
                </mxCell>
                <mxCell id="0VsszcQsJgy8Pk3T8Slc-16" value="&lt;font color=&quot;#000000&quot;&gt;Single Moms&lt;/font&gt;" style="rounded=0;whiteSpace=wrap;html=1;fillColor=#ffe6cc;strokeColor=#d79b00;" parent="0VsszcQsJgy8Pk3T8Slc-1" vertex="1">
                    <mxGeometry x="105" y="885.5" width="120" height="30" as="geometry"/>
                </mxCell>
                <mxCell id="0VsszcQsJgy8Pk3T8Slc-17" value="" style="shape=document;whiteSpace=wrap;html=1;boundedLbl=1;fontColor=#000000;fillColor=#E3E3E3;" parent="0VsszcQsJgy8Pk3T8Slc-1" vertex="1">
                    <mxGeometry x="180" y="80" width="620" height="400" as="geometry"/>
                </mxCell>
                <mxCell id="0VsszcQsJgy8Pk3T8Slc-18" value="Report" style="text;strokeColor=none;align=center;fillColor=none;html=1;verticalAlign=middle;whiteSpace=wrap;rounded=0;fontColor=#000000;fontSize=24;" parent="0VsszcQsJgy8Pk3T8Slc-1" vertex="1">
                    <mxGeometry x="180" y="80" width="670" height="30" as="geometry"/>
                </mxCell>
                <mxCell id="0VsszcQsJgy8Pk3T8Slc-19" value="&lt;font style=&quot;font-size: 18px;&quot;&gt;Income&lt;/font&gt;" style="text;strokeColor=none;align=center;fillColor=none;html=1;verticalAlign=middle;whiteSpace=wrap;rounded=0;fontColor=#000000;fontSize=18;" parent="0VsszcQsJgy8Pk3T8Slc-1" vertex="1">
                    <mxGeometry x="180" y="110" width="330" height="30" as="geometry"/>
                </mxCell>
                <mxCell id="0VsszcQsJgy8Pk3T8Slc-20" value="&lt;font style=&quot;font-size: 12px;&quot;&gt;Accounts&lt;/font&gt;" style="text;strokeColor=none;align=left;fillColor=none;html=1;verticalAlign=middle;whiteSpace=wrap;rounded=0;fontColor=#000000;fontSize=12;" parent="0VsszcQsJgy8Pk3T8Slc-1" vertex="1">
                    <mxGeometry x="180" y="140" width="102.41379310344827" height="10" as="geometry"/>
                </mxCell>
                <mxCell id="0VsszcQsJgy8Pk3T8Slc-21" value="&lt;font style=&quot;font-size: 12px;&quot;&gt;General Fund&amp;nbsp; &amp;nbsp; &amp;nbsp; &amp;nbsp; &amp;nbsp; &amp;nbsp; &amp;nbsp; &amp;nbsp; &amp;nbsp; &amp;nbsp;$25,000&lt;/font&gt;" style="text;strokeColor=none;align=left;fillColor=none;html=1;verticalAlign=middle;whiteSpace=wrap;rounded=0;fontColor=#000000;fontSize=12;rotation=0;" parent="0VsszcQsJgy8Pk3T8Slc-1" vertex="1">
                    <mxGeometry x="191.38" y="154" width="188.62" height="16" as="geometry"/>
                </mxCell>
                <mxCell id="0VsszcQsJgy8Pk3T8Slc-22" value="&lt;font style=&quot;font-size: 12px;&quot;&gt;Tithes&amp;nbsp; &amp;nbsp; &amp;nbsp; &amp;nbsp; &amp;nbsp; &amp;nbsp; &amp;nbsp; &amp;nbsp; &amp;nbsp; &amp;nbsp; &amp;nbsp; &amp;nbsp; &amp;nbsp; &amp;nbsp; &amp;nbsp; &amp;nbsp; &amp;nbsp;$7,000&lt;/font&gt;" style="text;strokeColor=none;align=left;fillColor=none;html=1;verticalAlign=middle;whiteSpace=wrap;rounded=0;fontColor=#000000;fontSize=12;rotation=0;" parent="0VsszcQsJgy8Pk3T8Slc-1" vertex="1">
                    <mxGeometry x="191.38" y="189" width="188.62" height="16" as="geometry"/>
                </mxCell>
                <mxCell id="0VsszcQsJgy8Pk3T8Slc-23" value="&lt;font style=&quot;font-size: 12px;&quot;&gt;Children's Ministry&amp;nbsp; &amp;nbsp; &amp;nbsp; &amp;nbsp; &amp;nbsp; &amp;nbsp; &amp;nbsp; &amp;nbsp; &amp;nbsp;&lt;/font&gt;$250" style="text;strokeColor=none;align=left;fillColor=none;html=1;verticalAlign=middle;whiteSpace=wrap;rounded=0;fontColor=#000000;fontSize=12;rotation=0;" parent="0VsszcQsJgy8Pk3T8Slc-1" vertex="1">
                    <mxGeometry x="191.38" y="237" width="218.62" height="16" as="geometry"/>
                </mxCell>
                <mxCell id="0VsszcQsJgy8Pk3T8Slc-24" value="&lt;font style=&quot;font-size: 12px;&quot;&gt;Missions&amp;nbsp; &amp;nbsp; &amp;nbsp; &amp;nbsp; &amp;nbsp; &amp;nbsp; &amp;nbsp; &amp;nbsp; &amp;nbsp; &amp;nbsp; &amp;nbsp; &amp;nbsp; &amp;nbsp; &amp;nbsp; &amp;nbsp;$2,000&lt;/font&gt;" style="text;strokeColor=none;align=left;fillColor=none;html=1;verticalAlign=middle;whiteSpace=wrap;rounded=0;fontColor=#000000;fontSize=12;rotation=0;" parent="0VsszcQsJgy8Pk3T8Slc-1" vertex="1">
                    <mxGeometry x="191.38" y="205" width="188.62" height="16" as="geometry"/>
                </mxCell>
                <mxCell id="0VsszcQsJgy8Pk3T8Slc-25" value="&lt;font style=&quot;font-size: 12px;&quot;&gt;Discipleship&amp;nbsp; &amp;nbsp; &amp;nbsp; &amp;nbsp; &amp;nbsp; &amp;nbsp; &amp;nbsp; &amp;nbsp; &amp;nbsp; &amp;nbsp; &amp;nbsp; &amp;nbsp; &amp;nbsp; &amp;nbsp;$100&lt;/font&gt;" style="text;strokeColor=none;align=left;fillColor=none;html=1;verticalAlign=middle;whiteSpace=wrap;rounded=0;fontColor=#000000;fontSize=12;rotation=0;" parent="0VsszcQsJgy8Pk3T8Slc-1" vertex="1">
                    <mxGeometry x="191.38" y="221" width="208.62" height="16" as="geometry"/>
                </mxCell>
                <mxCell id="0VsszcQsJgy8Pk3T8Slc-26" value="&lt;font style=&quot;font-size: 12px;&quot;&gt;Misc.&amp;nbsp; &amp;nbsp; &amp;nbsp; &amp;nbsp; &amp;nbsp; &amp;nbsp; &amp;nbsp; &amp;nbsp; &amp;nbsp; &amp;nbsp; &amp;nbsp; &amp;nbsp; &amp;nbsp; &amp;nbsp; &amp;nbsp; &amp;nbsp; &amp;nbsp; &amp;nbsp; &amp;nbsp;&amp;nbsp;&lt;/font&gt;$950" style="text;strokeColor=none;align=left;fillColor=none;html=1;verticalAlign=middle;whiteSpace=wrap;rounded=0;fontColor=#000000;fontSize=12;rotation=0;" parent="0VsszcQsJgy8Pk3T8Slc-1" vertex="1">
                    <mxGeometry x="191.38" y="253" width="238.62" height="16" as="geometry"/>
                </mxCell>
                <mxCell id="0VsszcQsJgy8Pk3T8Slc-27" value="&lt;font style=&quot;font-size: 12px;&quot;&gt;Outreach&amp;nbsp; &amp;nbsp; &amp;nbsp; &amp;nbsp; &amp;nbsp; &amp;nbsp; &amp;nbsp; &amp;nbsp; &amp;nbsp; &amp;nbsp; &amp;nbsp; &amp;nbsp; &amp;nbsp; &amp;nbsp; &amp;nbsp;$2200&lt;/font&gt;" style="text;strokeColor=none;align=left;fillColor=none;html=1;verticalAlign=middle;whiteSpace=wrap;rounded=0;fontColor=#000000;fontSize=12;rotation=0;" parent="0VsszcQsJgy8Pk3T8Slc-1" vertex="1">
                    <mxGeometry x="191.38" y="343" width="188.62" height="16" as="geometry"/>
                </mxCell>
                <mxCell id="0VsszcQsJgy8Pk3T8Slc-28" value="&lt;font style=&quot;font-size: 12px;&quot;&gt;Amount&lt;/font&gt;" style="text;strokeColor=none;align=left;fillColor=none;html=1;verticalAlign=middle;whiteSpace=wrap;rounded=0;fontColor=#000000;fontSize=12;" parent="0VsszcQsJgy8Pk3T8Slc-1" vertex="1">
                    <mxGeometry x="327.9310344827586" y="140" width="68.27586206896551" height="10" as="geometry"/>
                </mxCell>
                <mxCell id="0VsszcQsJgy8Pk3T8Slc-29" value="&lt;font style=&quot;font-size: 12px;&quot;&gt;Notes&lt;/font&gt;" style="text;strokeColor=none;align=center;fillColor=none;html=1;verticalAlign=middle;whiteSpace=wrap;rounded=0;fontColor=#000000;fontSize=12;" parent="0VsszcQsJgy8Pk3T8Slc-1" vertex="1">
                    <mxGeometry x="400" y="140" width="110" height="10" as="geometry"/>
                </mxCell>
                <mxCell id="0VsszcQsJgy8Pk3T8Slc-30" value="&lt;font style=&quot;font-size: 12px;&quot;&gt;Earned income&amp;nbsp; &amp;nbsp; &amp;nbsp; &amp;nbsp; &amp;nbsp; &amp;nbsp; &amp;nbsp;$300&lt;/font&gt;" style="text;strokeColor=none;align=left;fillColor=none;html=1;verticalAlign=middle;whiteSpace=wrap;rounded=0;fontColor=#000000;fontSize=12;rotation=0;" parent="0VsszcQsJgy8Pk3T8Slc-1" vertex="1">
                    <mxGeometry x="220" y="170" width="190" height="16" as="geometry"/>
                </mxCell>
                <mxCell id="0VsszcQsJgy8Pk3T8Slc-31" value="&lt;font style=&quot;font-size: 12px;&quot;&gt;OASIS:&amp;nbsp; &amp;nbsp; &amp;nbsp; &amp;nbsp; &amp;nbsp; &amp;nbsp; &amp;nbsp; &amp;nbsp; &amp;nbsp; &amp;nbsp; &amp;nbsp; &amp;nbsp; &amp;nbsp;$200&lt;br&gt;&lt;/font&gt;" style="text;strokeColor=none;align=left;fillColor=none;html=1;verticalAlign=middle;whiteSpace=wrap;rounded=0;fontColor=#000000;fontSize=12;rotation=0;" parent="0VsszcQsJgy8Pk3T8Slc-1" vertex="1">
                    <mxGeometry x="220" y="270" width="190" height="16" as="geometry"/>
                </mxCell>
                <mxCell id="0VsszcQsJgy8Pk3T8Slc-32" value="&lt;font style=&quot;font-size: 12px;&quot;&gt;Media/Worship:&amp;nbsp; &amp;nbsp; &amp;nbsp; &amp;nbsp; &amp;nbsp; &amp;nbsp; $500&lt;br&gt;&lt;/font&gt;" style="text;strokeColor=none;align=left;fillColor=none;html=1;verticalAlign=middle;whiteSpace=wrap;rounded=0;fontColor=#000000;fontSize=12;rotation=0;" parent="0VsszcQsJgy8Pk3T8Slc-1" vertex="1">
                    <mxGeometry x="220" y="286" width="180" height="16" as="geometry"/>
                </mxCell>
                <mxCell id="0VsszcQsJgy8Pk3T8Slc-33" value="&lt;font style=&quot;font-size: 12px;&quot;&gt;Men's Ministries:&amp;nbsp; &amp;nbsp; &amp;nbsp; &amp;nbsp; &amp;nbsp; $250&lt;br&gt;&lt;/font&gt;" style="text;strokeColor=none;align=left;fillColor=none;html=1;verticalAlign=middle;whiteSpace=wrap;rounded=0;fontColor=#000000;fontSize=12;rotation=0;" parent="0VsszcQsJgy8Pk3T8Slc-1" vertex="1">
                    <mxGeometry x="220" y="300" width="170" height="16" as="geometry"/>
                </mxCell>
                <mxCell id="0VsszcQsJgy8Pk3T8Slc-34" value="&lt;font style=&quot;font-size: 12px;&quot;&gt;Heart To Heart:&amp;nbsp; &amp;nbsp; &amp;nbsp; &amp;nbsp; &amp;nbsp; &amp;nbsp; &amp;nbsp;$500&lt;br&gt;&lt;/font&gt;" style="text;strokeColor=none;align=left;fillColor=none;html=1;verticalAlign=middle;whiteSpace=wrap;rounded=0;fontColor=#000000;fontSize=12;rotation=0;" parent="0VsszcQsJgy8Pk3T8Slc-1" vertex="1">
                    <mxGeometry x="220" y="364" width="170" height="16" as="geometry"/>
                </mxCell>
                <mxCell id="0VsszcQsJgy8Pk3T8Slc-35" value="&lt;font style=&quot;font-size: 12px;&quot;&gt;KAVAH:&amp;nbsp; &amp;nbsp; &amp;nbsp; &amp;nbsp; &amp;nbsp; &amp;nbsp; &amp;nbsp; &amp;nbsp; &amp;nbsp; &amp;nbsp; &amp;nbsp; &amp;nbsp;$1325&lt;br&gt;&lt;/font&gt;" style="text;strokeColor=none;align=left;fillColor=none;html=1;verticalAlign=middle;whiteSpace=wrap;rounded=0;fontColor=#000000;fontSize=12;rotation=0;" parent="0VsszcQsJgy8Pk3T8Slc-1" vertex="1">
                    <mxGeometry x="220" y="380" width="170" height="16" as="geometry"/>
                </mxCell>
                <mxCell id="0VsszcQsJgy8Pk3T8Slc-36" value="&lt;font style=&quot;font-size: 12px;&quot;&gt;Recovery Mill:&amp;nbsp; &amp;nbsp; &amp;nbsp; &amp;nbsp; &amp;nbsp; &amp;nbsp; &amp;nbsp; &amp;nbsp;$250&lt;br&gt;&lt;/font&gt;" style="text;strokeColor=none;align=left;fillColor=none;html=1;verticalAlign=middle;whiteSpace=wrap;rounded=0;fontColor=#000000;fontSize=12;rotation=0;" parent="0VsszcQsJgy8Pk3T8Slc-1" vertex="1">
                    <mxGeometry x="220" y="396" width="160" height="16" as="geometry"/>
                </mxCell>
                <mxCell id="0VsszcQsJgy8Pk3T8Slc-37" value="&lt;font style=&quot;font-size: 12px;&quot;&gt;Single Moms:&amp;nbsp; &amp;nbsp; &amp;nbsp; &amp;nbsp; &amp;nbsp; &amp;nbsp; &amp;nbsp; $125&lt;br&gt;&lt;/font&gt;" style="text;strokeColor=none;align=left;fillColor=none;html=1;verticalAlign=middle;whiteSpace=wrap;rounded=0;fontColor=#000000;fontSize=12;rotation=0;" parent="0VsszcQsJgy8Pk3T8Slc-1" vertex="1">
                    <mxGeometry x="225" y="412" width="165" height="16" as="geometry"/>
                </mxCell>
                <mxCell id="0VsszcQsJgy8Pk3T8Slc-38" value="In this style, the system reports on both the Parent accounts and the children accounts and the need for manually tracking those differences is removed.&amp;nbsp; &lt;br&gt;&lt;br&gt;Data entry is simplified because you can go directly to the account you wish to work with, without the need to go to the parent account first." style="text;strokeColor=none;align=left;fillColor=none;html=1;verticalAlign=middle;whiteSpace=wrap;rounded=0;fontSize=18;fontColor=#000000;" parent="0VsszcQsJgy8Pk3T8Slc-1" vertex="1">
                    <mxGeometry x="250" y="480" width="568.62" height="180" as="geometry"/>
                </mxCell>
                <mxCell id="0VsszcQsJgy8Pk3T8Slc-39" value="Misc." style="text;strokeColor=none;align=center;fillColor=none;html=1;verticalAlign=middle;whiteSpace=wrap;rounded=0;fontSize=12;fontColor=#000000;" parent="0VsszcQsJgy8Pk3T8Slc-1" vertex="1">
                    <mxGeometry x="40" y="480" width="60" height="30" as="geometry"/>
                </mxCell>
                <mxCell id="0VsszcQsJgy8Pk3T8Slc-40" value="Outreach" style="text;strokeColor=none;align=center;fillColor=none;html=1;verticalAlign=middle;whiteSpace=wrap;rounded=0;fontSize=12;fontColor=#000000;" parent="0VsszcQsJgy8Pk3T8Slc-1" vertex="1">
                    <mxGeometry x="40" y="721" width="60" height="30" as="geometry"/>
                </mxCell>
            </root>
        </mxGraphModel>
    </diagram>
    <diagram id="8eJM780nKNtQ0UZC-TvW" name="Now Folders">
        <mxGraphModel dx="474" dy="476" grid="1" gridSize="10" guides="1" tooltips="1" connect="1" arrows="1" fold="1" page="1" pageScale="1" pageWidth="850" pageHeight="1100" background="#ffffff" math="0" shadow="0">
            <root>
                <mxCell id="0"/>
                <mxCell id="1" parent="0"/>
                <mxCell id="4mG9kXMyqXV2OLiiR5hV-8" value="" style="group" parent="1" vertex="1" connectable="0">
                    <mxGeometry x="40" y="20" width="120" height="90" as="geometry"/>
                </mxCell>
                <mxCell id="4mG9kXMyqXV2OLiiR5hV-2" value="" style="sketch=0;pointerEvents=1;shadow=0;dashed=0;html=1;strokeColor=none;fillColor=#008a00;labelPosition=center;verticalLabelPosition=bottom;verticalAlign=top;outlineConnect=0;align=center;shape=mxgraph.office.concepts.folder;" parent="4mG9kXMyqXV2OLiiR5hV-8" vertex="1">
                    <mxGeometry width="120" height="90" as="geometry"/>
                </mxCell>
                <mxCell id="4mG9kXMyqXV2OLiiR5hV-11" value="Tithes" style="text;strokeColor=none;align=left;fillColor=none;html=1;verticalAlign=middle;whiteSpace=wrap;rounded=0;fontSize=16;spacingLeft=5;" parent="4mG9kXMyqXV2OLiiR5hV-8" vertex="1">
                    <mxGeometry y="20" width="120" height="30" as="geometry"/>
                </mxCell>
                <mxCell id="4mG9kXMyqXV2OLiiR5hV-14" value="Income" style="text;strokeColor=none;align=left;fillColor=none;html=1;verticalAlign=middle;whiteSpace=wrap;rounded=0;spacingLeft=7;" parent="4mG9kXMyqXV2OLiiR5hV-8" vertex="1">
                    <mxGeometry y="40" width="120" height="20" as="geometry"/>
                </mxCell>
                <mxCell id="4mG9kXMyqXV2OLiiR5hV-17" value="" style="group" parent="1" vertex="1" connectable="0">
                    <mxGeometry x="170" y="20" width="120" height="90" as="geometry"/>
                </mxCell>
                <mxCell id="4mG9kXMyqXV2OLiiR5hV-18" value="" style="sketch=0;pointerEvents=1;shadow=0;dashed=0;html=1;strokeColor=none;fillColor=#008a00;labelPosition=center;verticalLabelPosition=bottom;verticalAlign=top;outlineConnect=0;align=center;shape=mxgraph.office.concepts.folder;" parent="4mG9kXMyqXV2OLiiR5hV-17" vertex="1">
                    <mxGeometry width="120" height="90" as="geometry"/>
                </mxCell>
                <mxCell id="4mG9kXMyqXV2OLiiR5hV-20" value="General Fund" style="text;strokeColor=none;align=left;fillColor=none;html=1;verticalAlign=middle;whiteSpace=wrap;rounded=0;fontSize=16;spacingLeft=5;" parent="4mG9kXMyqXV2OLiiR5hV-17" vertex="1">
                    <mxGeometry y="20" width="120" height="30" as="geometry"/>
                </mxCell>
                <mxCell id="4mG9kXMyqXV2OLiiR5hV-21" value="Income" style="text;strokeColor=none;align=left;fillColor=none;html=1;verticalAlign=middle;whiteSpace=wrap;rounded=0;spacingLeft=7;" parent="4mG9kXMyqXV2OLiiR5hV-17" vertex="1">
                    <mxGeometry y="40" width="120" height="20" as="geometry"/>
                </mxCell>
                <mxCell id="4mG9kXMyqXV2OLiiR5hV-22" value="" style="group" parent="1" vertex="1" connectable="0">
                    <mxGeometry x="300" y="20" width="120" height="90" as="geometry"/>
                </mxCell>
                <mxCell id="4mG9kXMyqXV2OLiiR5hV-23" value="" style="sketch=0;pointerEvents=1;shadow=0;dashed=0;html=1;strokeColor=none;fillColor=#008a00;labelPosition=center;verticalLabelPosition=bottom;verticalAlign=top;outlineConnect=0;align=center;shape=mxgraph.office.concepts.folder;" parent="4mG9kXMyqXV2OLiiR5hV-22" vertex="1">
                    <mxGeometry width="120" height="90" as="geometry"/>
                </mxCell>
                <mxCell id="4mG9kXMyqXV2OLiiR5hV-25" value="Kids World" style="text;strokeColor=none;align=left;fillColor=none;html=1;verticalAlign=middle;whiteSpace=wrap;rounded=0;fontSize=16;spacingLeft=5;" parent="4mG9kXMyqXV2OLiiR5hV-22" vertex="1">
                    <mxGeometry y="20" width="120" height="30" as="geometry"/>
                </mxCell>
                <mxCell id="4mG9kXMyqXV2OLiiR5hV-26" value="Income" style="text;strokeColor=none;align=left;fillColor=none;html=1;verticalAlign=middle;whiteSpace=wrap;rounded=0;spacingLeft=7;" parent="4mG9kXMyqXV2OLiiR5hV-22" vertex="1">
                    <mxGeometry y="40" width="120" height="20" as="geometry"/>
                </mxCell>
                <mxCell id="4mG9kXMyqXV2OLiiR5hV-27" value="" style="group" parent="1" vertex="1" connectable="0">
                    <mxGeometry x="430" y="20" width="120" height="90" as="geometry"/>
                </mxCell>
                <mxCell id="4mG9kXMyqXV2OLiiR5hV-28" value="" style="sketch=0;pointerEvents=1;shadow=0;dashed=0;html=1;strokeColor=none;fillColor=#008a00;labelPosition=center;verticalLabelPosition=bottom;verticalAlign=top;outlineConnect=0;align=center;shape=mxgraph.office.concepts.folder;" parent="4mG9kXMyqXV2OLiiR5hV-27" vertex="1">
                    <mxGeometry width="120" height="90" as="geometry"/>
                </mxCell>
                <mxCell id="4mG9kXMyqXV2OLiiR5hV-30" value="&lt;font style=&quot;font-size: 16px;&quot;&gt;World Missions&lt;/font&gt;" style="text;strokeColor=none;align=left;fillColor=none;html=1;verticalAlign=middle;whiteSpace=wrap;rounded=0;fontSize=18;spacingLeft=5;" parent="4mG9kXMyqXV2OLiiR5hV-27" vertex="1">
                    <mxGeometry y="20" width="120" height="30" as="geometry"/>
                </mxCell>
                <mxCell id="4mG9kXMyqXV2OLiiR5hV-31" value="Income" style="text;strokeColor=none;align=left;fillColor=none;html=1;verticalAlign=middle;whiteSpace=wrap;rounded=0;spacingLeft=7;" parent="4mG9kXMyqXV2OLiiR5hV-27" vertex="1">
                    <mxGeometry y="40" width="120" height="20" as="geometry"/>
                </mxCell>
                <mxCell id="4mG9kXMyqXV2OLiiR5hV-32" value="" style="group" parent="1" vertex="1" connectable="0">
                    <mxGeometry x="560" y="20" width="120" height="90" as="geometry"/>
                </mxCell>
                <mxCell id="4mG9kXMyqXV2OLiiR5hV-33" value="" style="sketch=0;pointerEvents=1;shadow=0;dashed=0;html=1;strokeColor=none;fillColor=#008a00;labelPosition=center;verticalLabelPosition=bottom;verticalAlign=top;outlineConnect=0;align=center;shape=mxgraph.office.concepts.folder;" parent="4mG9kXMyqXV2OLiiR5hV-32" vertex="1">
                    <mxGeometry width="120" height="90" as="geometry"/>
                </mxCell>
                <mxCell id="4mG9kXMyqXV2OLiiR5hV-35" value="Discipleship" style="text;strokeColor=none;align=left;fillColor=none;html=1;verticalAlign=middle;whiteSpace=wrap;rounded=0;fontSize=18;spacingLeft=5;" parent="4mG9kXMyqXV2OLiiR5hV-32" vertex="1">
                    <mxGeometry y="20" width="120" height="30" as="geometry"/>
                </mxCell>
                <mxCell id="4mG9kXMyqXV2OLiiR5hV-36" value="Income" style="text;strokeColor=none;align=left;fillColor=none;html=1;verticalAlign=middle;whiteSpace=wrap;rounded=0;spacingLeft=7;" parent="4mG9kXMyqXV2OLiiR5hV-32" vertex="1">
                    <mxGeometry y="40" width="120" height="20" as="geometry"/>
                </mxCell>
                <mxCell id="4mG9kXMyqXV2OLiiR5hV-37" value="" style="group" parent="1" vertex="1" connectable="0">
                    <mxGeometry x="40" y="120" width="120" height="90" as="geometry"/>
                </mxCell>
                <mxCell id="4mG9kXMyqXV2OLiiR5hV-38" value="" style="sketch=0;pointerEvents=1;shadow=0;dashed=0;html=1;strokeColor=none;fillColor=#008a00;labelPosition=center;verticalLabelPosition=bottom;verticalAlign=top;outlineConnect=0;align=center;shape=mxgraph.office.concepts.folder;" parent="4mG9kXMyqXV2OLiiR5hV-37" vertex="1">
                    <mxGeometry width="120" height="90" as="geometry"/>
                </mxCell>
                <mxCell id="4mG9kXMyqXV2OLiiR5hV-40" value="Youth" style="text;strokeColor=none;align=left;fillColor=none;html=1;verticalAlign=middle;whiteSpace=wrap;rounded=0;fontSize=18;spacingLeft=5;" parent="4mG9kXMyqXV2OLiiR5hV-37" vertex="1">
                    <mxGeometry y="20" width="120" height="30" as="geometry"/>
                </mxCell>
                <mxCell id="4mG9kXMyqXV2OLiiR5hV-41" value="Income" style="text;strokeColor=none;align=left;fillColor=none;html=1;verticalAlign=middle;whiteSpace=wrap;rounded=0;spacingLeft=7;" parent="4mG9kXMyqXV2OLiiR5hV-37" vertex="1">
                    <mxGeometry y="40" width="120" height="20" as="geometry"/>
                </mxCell>
                <mxCell id="4mG9kXMyqXV2OLiiR5hV-68" value="" style="group" parent="1" vertex="1" connectable="0">
                    <mxGeometry x="50" y="480" width="120" height="90" as="geometry"/>
                </mxCell>
                <mxCell id="4mG9kXMyqXV2OLiiR5hV-69" value="" style="sketch=0;pointerEvents=1;shadow=0;dashed=0;html=1;strokeColor=none;fillColor=#008a00;labelPosition=center;verticalLabelPosition=bottom;verticalAlign=top;outlineConnect=0;align=center;shape=mxgraph.office.concepts.folder;" parent="4mG9kXMyqXV2OLiiR5hV-68" vertex="1">
                    <mxGeometry width="120" height="90" as="geometry"/>
                </mxCell>
                <mxCell id="4mG9kXMyqXV2OLiiR5hV-71" value="Misc." style="text;strokeColor=none;align=left;fillColor=none;html=1;verticalAlign=middle;whiteSpace=wrap;rounded=0;fontSize=18;spacingLeft=5;" parent="4mG9kXMyqXV2OLiiR5hV-68" vertex="1">
                    <mxGeometry y="20" width="120" height="30" as="geometry"/>
                </mxCell>
                <mxCell id="4mG9kXMyqXV2OLiiR5hV-72" value="Income" style="text;strokeColor=none;align=left;fillColor=none;html=1;verticalAlign=middle;whiteSpace=wrap;rounded=0;spacingLeft=7;" parent="4mG9kXMyqXV2OLiiR5hV-68" vertex="1">
                    <mxGeometry y="40" width="120" height="20" as="geometry"/>
                </mxCell>
                <mxCell id="5OHC2L2e8Wi16KYbDfO3-1" value="" style="shape=document;whiteSpace=wrap;html=1;boundedLbl=1;strokeColor=#000000;fillColor=#fa6800;fontColor=#000000;" parent="1" vertex="1">
                    <mxGeometry x="110" y="170" width="120" height="70" as="geometry"/>
                </mxCell>
                <mxCell id="4mG9kXMyqXV2OLiiR5hV-12" value="RAMP" style="text;strokeColor=none;align=left;fillColor=none;html=1;verticalAlign=middle;whiteSpace=wrap;rounded=0;fontSize=16;spacingLeft=5;" parent="1" vertex="1">
                    <mxGeometry x="110" y="170" width="120" height="30" as="geometry"/>
                </mxCell>
                <mxCell id="5OHC2L2e8Wi16KYbDfO3-6" value="" style="shape=document;whiteSpace=wrap;html=1;boundedLbl=1;strokeColor=#000000;fillColor=#fa6800;fontColor=#000000;" parent="1" vertex="1">
                    <mxGeometry x="120" y="530" width="120" height="70" as="geometry"/>
                </mxCell>
                <mxCell id="5OHC2L2e8Wi16KYbDfO3-7" value="" style="shape=document;whiteSpace=wrap;html=1;boundedLbl=1;strokeColor=#000000;fillColor=#fa6800;fontColor=#000000;" parent="1" vertex="1">
                    <mxGeometry x="140" y="560" width="120" height="70" as="geometry"/>
                </mxCell>
                <mxCell id="5OHC2L2e8Wi16KYbDfO3-8" value="" style="shape=document;whiteSpace=wrap;html=1;boundedLbl=1;strokeColor=#000000;fillColor=#fa6800;fontColor=#000000;" parent="1" vertex="1">
                    <mxGeometry x="160" y="590" width="120" height="70" as="geometry"/>
                </mxCell>
                <mxCell id="5OHC2L2e8Wi16KYbDfO3-9" value="" style="shape=document;whiteSpace=wrap;html=1;boundedLbl=1;strokeColor=#000000;fillColor=#fa6800;fontColor=#000000;" parent="1" vertex="1">
                    <mxGeometry x="180" y="620" width="120" height="70" as="geometry"/>
                </mxCell>
                <mxCell id="4mG9kXMyqXV2OLiiR5hV-76" value="OASIS" style="text;strokeColor=none;align=left;fillColor=none;html=1;verticalAlign=middle;whiteSpace=wrap;rounded=0;fontSize=16;spacingLeft=5;" parent="1" vertex="1">
                    <mxGeometry x="120" y="530" width="120" height="30" as="geometry"/>
                </mxCell>
                <mxCell id="4mG9kXMyqXV2OLiiR5hV-81" value="Media/Worship" style="text;strokeColor=none;align=left;fillColor=none;html=1;verticalAlign=middle;whiteSpace=wrap;rounded=0;fontSize=16;spacingLeft=5;" parent="1" vertex="1">
                    <mxGeometry x="140" y="560" width="120" height="30" as="geometry"/>
                </mxCell>
                <mxCell id="4mG9kXMyqXV2OLiiR5hV-86" value="Mens Ministry" style="text;strokeColor=none;align=left;fillColor=none;html=1;verticalAlign=middle;whiteSpace=wrap;rounded=0;fontSize=16;spacingLeft=5;" parent="1" vertex="1">
                    <mxGeometry x="160" y="590" width="120" height="30" as="geometry"/>
                </mxCell>
                <mxCell id="4mG9kXMyqXV2OLiiR5hV-91" value="Single Moms" style="text;strokeColor=none;align=left;fillColor=none;html=1;verticalAlign=middle;whiteSpace=wrap;rounded=0;fontSize=16;spacingLeft=5;" parent="1" vertex="1">
                    <mxGeometry x="180" y="620" width="120" height="30" as="geometry"/>
                </mxCell>
                <mxCell id="5OHC2L2e8Wi16KYbDfO3-10" value="" style="shape=document;whiteSpace=wrap;html=1;boundedLbl=1;strokeColor=#000000;fillColor=#fa6800;fontColor=#000000;" parent="1" vertex="1">
                    <mxGeometry x="295" y="530" width="120" height="70" as="geometry"/>
                </mxCell>
                <mxCell id="5OHC2L2e8Wi16KYbDfO3-11" value="" style="shape=document;whiteSpace=wrap;html=1;boundedLbl=1;strokeColor=#000000;fillColor=#fa6800;fontColor=#000000;" parent="1" vertex="1">
                    <mxGeometry x="310" y="560" width="120" height="70" as="geometry"/>
                </mxCell>
                <mxCell id="5OHC2L2e8Wi16KYbDfO3-12" value="" style="shape=document;whiteSpace=wrap;html=1;boundedLbl=1;strokeColor=#000000;fillColor=#fa6800;fontColor=#000000;" parent="1" vertex="1">
                    <mxGeometry x="330" y="590" width="120" height="70" as="geometry"/>
                </mxCell>
                <mxCell id="5OHC2L2e8Wi16KYbDfO3-13" value="" style="shape=document;whiteSpace=wrap;html=1;boundedLbl=1;strokeColor=#000000;fillColor=#fa6800;fontColor=#000000;" parent="1" vertex="1">
                    <mxGeometry x="350" y="620" width="120" height="70" as="geometry"/>
                </mxCell>
                <mxCell id="4mG9kXMyqXV2OLiiR5hV-96" value="Womens Minis." style="text;strokeColor=none;align=left;fillColor=none;html=1;verticalAlign=middle;whiteSpace=wrap;rounded=0;fontSize=16;spacingLeft=5;" parent="1" vertex="1">
                    <mxGeometry x="295" y="530" width="120" height="30" as="geometry"/>
                </mxCell>
                <mxCell id="4mG9kXMyqXV2OLiiR5hV-101" value="Banners" style="text;strokeColor=none;align=left;fillColor=none;html=1;verticalAlign=middle;whiteSpace=wrap;rounded=0;fontSize=16;spacingLeft=5;" parent="1" vertex="1">
                    <mxGeometry x="310" y="560" width="120" height="30" as="geometry"/>
                </mxCell>
                <mxCell id="4mG9kXMyqXV2OLiiR5hV-106" value="Benevolence" style="text;strokeColor=none;align=left;fillColor=none;html=1;verticalAlign=middle;whiteSpace=wrap;rounded=0;fontSize=16;spacingLeft=5;" parent="1" vertex="1">
                    <mxGeometry x="330" y="590" width="120" height="30" as="geometry"/>
                </mxCell>
                <mxCell id="4mG9kXMyqXV2OLiiR5hV-111" value="Bookstore" style="text;strokeColor=none;align=left;fillColor=none;html=1;verticalAlign=middle;whiteSpace=wrap;rounded=0;fontSize=16;spacingLeft=5;" parent="1" vertex="1">
                    <mxGeometry x="350" y="620" width="120" height="30" as="geometry"/>
                </mxCell>
                <mxCell id="5OHC2L2e8Wi16KYbDfO3-14" value="" style="shape=document;whiteSpace=wrap;html=1;boundedLbl=1;strokeColor=#000000;fillColor=#fa6800;fontColor=#000000;" parent="1" vertex="1">
                    <mxGeometry x="460" y="530" width="120" height="70" as="geometry"/>
                </mxCell>
                <mxCell id="4mG9kXMyqXV2OLiiR5hV-116" value="Shebrews" style="text;strokeColor=none;align=left;fillColor=none;html=1;verticalAlign=middle;whiteSpace=wrap;rounded=0;fontSize=16;spacingLeft=5;" parent="1" vertex="1">
                    <mxGeometry x="460" y="530" width="120" height="30" as="geometry"/>
                </mxCell>
                <mxCell id="5OHC2L2e8Wi16KYbDfO3-15" value="" style="shape=document;whiteSpace=wrap;html=1;boundedLbl=1;strokeColor=#000000;fillColor=#fa6800;fontColor=#000000;" parent="1" vertex="1">
                    <mxGeometry x="480" y="560" width="120" height="70" as="geometry"/>
                </mxCell>
                <mxCell id="4mG9kXMyqXV2OLiiR5hV-121" value="Debt Reduct." style="text;strokeColor=none;align=left;fillColor=none;html=1;verticalAlign=middle;whiteSpace=wrap;rounded=0;fontSize=16;spacingLeft=5;" parent="1" vertex="1">
                    <mxGeometry x="480" y="560" width="120" height="30" as="geometry"/>
                </mxCell>
                <mxCell id="5OHC2L2e8Wi16KYbDfO3-16" value="" style="shape=document;whiteSpace=wrap;html=1;boundedLbl=1;strokeColor=#000000;fillColor=#fa6800;fontColor=#000000;" parent="1" vertex="1">
                    <mxGeometry x="500" y="590" width="120" height="70" as="geometry"/>
                </mxCell>
                <mxCell id="4mG9kXMyqXV2OLiiR5hV-126" value="Guest Speak." style="text;strokeColor=none;align=left;fillColor=none;html=1;verticalAlign=middle;whiteSpace=wrap;rounded=0;fontSize=16;spacingLeft=5;" parent="1" vertex="1">
                    <mxGeometry x="500" y="590" width="120" height="30" as="geometry"/>
                </mxCell>
                <mxCell id="5OHC2L2e8Wi16KYbDfO3-17" value="" style="shape=document;whiteSpace=wrap;html=1;boundedLbl=1;strokeColor=#000000;fillColor=#fa6800;fontColor=#000000;" parent="1" vertex="1">
                    <mxGeometry x="520" y="620" width="120" height="70" as="geometry"/>
                </mxCell>
                <mxCell id="4mG9kXMyqXV2OLiiR5hV-131" value="Love Offering" style="text;strokeColor=none;align=left;fillColor=none;html=1;verticalAlign=middle;whiteSpace=wrap;rounded=0;fontSize=16;spacingLeft=5;" parent="1" vertex="1">
                    <mxGeometry x="520" y="620" width="120" height="30" as="geometry"/>
                </mxCell>
                <mxCell id="5OHC2L2e8Wi16KYbDfO3-18" value="" style="shape=document;whiteSpace=wrap;html=1;boundedLbl=1;strokeColor=#000000;fillColor=#fa6800;fontColor=#000000;" parent="1" vertex="1">
                    <mxGeometry x="200" y="650" width="120" height="70" as="geometry"/>
                </mxCell>
                <mxCell id="5OHC2L2e8Wi16KYbDfO3-19" value="" style="shape=document;whiteSpace=wrap;html=1;boundedLbl=1;strokeColor=#000000;fillColor=#fa6800;fontColor=#000000;" parent="1" vertex="1">
                    <mxGeometry x="370" y="650" width="120" height="70" as="geometry"/>
                </mxCell>
                <mxCell id="5OHC2L2e8Wi16KYbDfO3-20" value="" style="shape=document;whiteSpace=wrap;html=1;boundedLbl=1;strokeColor=#000000;fillColor=#fa6800;fontColor=#000000;" parent="1" vertex="1">
                    <mxGeometry x="540" y="650" width="120" height="70" as="geometry"/>
                </mxCell>
                <mxCell id="4mG9kXMyqXV2OLiiR5hV-136" value="Rent" style="text;strokeColor=none;align=left;fillColor=none;html=1;verticalAlign=middle;whiteSpace=wrap;rounded=0;fontSize=16;spacingLeft=5;" parent="1" vertex="1">
                    <mxGeometry x="200" y="650" width="120" height="30" as="geometry"/>
                </mxCell>
                <mxCell id="4mG9kXMyqXV2OLiiR5hV-141" value="Earned Interest" style="text;strokeColor=none;align=left;fillColor=none;html=1;verticalAlign=middle;whiteSpace=wrap;rounded=0;fontSize=16;spacingLeft=5;" parent="1" vertex="1">
                    <mxGeometry x="370" y="650" width="120" height="30" as="geometry"/>
                </mxCell>
                <mxCell id="4mG9kXMyqXV2OLiiR5hV-146" value="Tribe" style="text;strokeColor=none;align=left;fillColor=none;html=1;verticalAlign=middle;whiteSpace=wrap;rounded=0;fontSize=16;spacingLeft=5;" parent="1" vertex="1">
                    <mxGeometry x="540" y="650" width="120" height="30" as="geometry"/>
                </mxCell>
                <mxCell id="5OHC2L2e8Wi16KYbDfO3-21" value="&lt;b&gt;ACCOUNTS&lt;/b&gt;" style="rounded=1;whiteSpace=wrap;html=1;strokeColor=#008a00;fillColor=#008a00;" parent="1" vertex="1">
                    <mxGeometry x="590" y="185" width="120" height="40" as="geometry"/>
                </mxCell>
                <mxCell id="5OHC2L2e8Wi16KYbDfO3-22" value="&lt;b&gt;NOTES&lt;/b&gt;" style="rounded=1;whiteSpace=wrap;html=1;strokeColor=#fa6800;fillColor=#fa6800;" parent="1" vertex="1">
                    <mxGeometry x="590" y="240" width="120" height="40" as="geometry"/>
                </mxCell>
                <mxCell id="4mG9kXMyqXV2OLiiR5hV-43" value="" style="sketch=0;pointerEvents=1;shadow=0;dashed=0;html=1;strokeColor=none;fillColor=#008a00;labelPosition=center;verticalLabelPosition=bottom;verticalAlign=top;outlineConnect=0;align=center;shape=mxgraph.office.concepts.folder;" parent="1" vertex="1">
                    <mxGeometry x="40" y="250" width="120" height="90" as="geometry"/>
                </mxCell>
                <mxCell id="4mG9kXMyqXV2OLiiR5hV-45" value="Outreach" style="text;strokeColor=none;align=left;fillColor=none;html=1;verticalAlign=middle;whiteSpace=wrap;rounded=0;fontSize=18;spacingLeft=5;" parent="1" vertex="1">
                    <mxGeometry x="40" y="270" width="120" height="30" as="geometry"/>
                </mxCell>
                <mxCell id="4mG9kXMyqXV2OLiiR5hV-46" value="Income" style="text;strokeColor=none;align=left;fillColor=none;html=1;verticalAlign=middle;whiteSpace=wrap;rounded=0;spacingLeft=7;" parent="1" vertex="1">
                    <mxGeometry x="40" y="290" width="120" height="20" as="geometry"/>
                </mxCell>
                <mxCell id="5OHC2L2e8Wi16KYbDfO3-2" value="" style="shape=document;whiteSpace=wrap;html=1;boundedLbl=1;strokeColor=#000000;fillColor=#fa6800;fontColor=#000000;" parent="1" vertex="1">
                    <mxGeometry x="120" y="300" width="120" height="70" as="geometry"/>
                </mxCell>
                <mxCell id="4mG9kXMyqXV2OLiiR5hV-50" value="Evangelism" style="text;strokeColor=none;align=left;fillColor=none;html=1;verticalAlign=middle;whiteSpace=wrap;rounded=0;fontSize=16;spacingLeft=5;" parent="1" vertex="1">
                    <mxGeometry x="120" y="300" width="120" height="30" as="geometry"/>
                </mxCell>
                <mxCell id="5OHC2L2e8Wi16KYbDfO3-5" value="" style="shape=document;whiteSpace=wrap;html=1;boundedLbl=1;strokeColor=#000000;fillColor=#fa6800;fontColor=#000000;" parent="1" vertex="1">
                    <mxGeometry x="140" y="330" width="120" height="70" as="geometry"/>
                </mxCell>
                <mxCell id="4mG9kXMyqXV2OLiiR5hV-55" value="Heart To Heart" style="text;strokeColor=none;align=left;fillColor=none;html=1;verticalAlign=middle;whiteSpace=wrap;rounded=0;fontSize=16;spacingLeft=5;" parent="1" vertex="1">
                    <mxGeometry x="140" y="330" width="120" height="30" as="geometry"/>
                </mxCell>
                <mxCell id="5OHC2L2e8Wi16KYbDfO3-4" value="" style="shape=document;whiteSpace=wrap;html=1;boundedLbl=1;strokeColor=#000000;fillColor=#fa6800;fontColor=#000000;" parent="1" vertex="1">
                    <mxGeometry x="160" y="360" width="120" height="70" as="geometry"/>
                </mxCell>
                <mxCell id="5OHC2L2e8Wi16KYbDfO3-3" value="" style="shape=document;whiteSpace=wrap;html=1;boundedLbl=1;strokeColor=#000000;fillColor=#fa6800;fontColor=#000000;" parent="1" vertex="1">
                    <mxGeometry x="180" y="390" width="120" height="70" as="geometry"/>
                </mxCell>
                <mxCell id="4mG9kXMyqXV2OLiiR5hV-61" value="KAVAH" style="text;strokeColor=none;align=left;fillColor=none;html=1;verticalAlign=middle;whiteSpace=wrap;rounded=0;fontSize=16;spacingLeft=5;" parent="1" vertex="1">
                    <mxGeometry x="160" y="360" width="120" height="30" as="geometry"/>
                </mxCell>
                <mxCell id="4mG9kXMyqXV2OLiiR5hV-66" value="Recovery Mill" style="text;strokeColor=none;align=left;fillColor=none;html=1;verticalAlign=middle;whiteSpace=wrap;rounded=0;fontSize=16;spacingLeft=5;" parent="1" vertex="1">
                    <mxGeometry x="180" y="390" width="120" height="30" as="geometry"/>
                </mxCell>
            </root>
        </mxGraphModel>
    </diagram>
    <diagram name="New Folders" id="BU6BX0s7qDGsVBkr1Nzw">
        <mxGraphModel dx="474" dy="476" grid="1" gridSize="10" guides="1" tooltips="1" connect="1" arrows="1" fold="1" page="1" pageScale="1" pageWidth="850" pageHeight="1100" background="#ffffff" math="0" shadow="0">
            <root>
                <mxCell id="lAG6Ie6wYtjXwY0weZwL-0"/>
                <mxCell id="lAG6Ie6wYtjXwY0weZwL-1" parent="lAG6Ie6wYtjXwY0weZwL-0"/>
                <mxCell id="5h55nIKHQTAwlY_QyKw6-11" value="" style="rounded=1;whiteSpace=wrap;html=1;strokeColor=none;fillColor=#0066CC;arcSize=5;" parent="lAG6Ie6wYtjXwY0weZwL-1" vertex="1">
                    <mxGeometry x="40" y="310" width="540" height="310" as="geometry"/>
                </mxCell>
                <mxCell id="rLCyz5ZbNa8VezALRKna-6" value="" style="rounded=1;whiteSpace=wrap;html=1;strokeColor=#000000;fillColor=#028a00;verticalAlign=top;align=left;spacingLeft=10;" parent="lAG6Ie6wYtjXwY0weZwL-1" vertex="1">
                    <mxGeometry x="440" y="420" width="120" height="80" as="geometry"/>
                </mxCell>
                <mxCell id="rLCyz5ZbNa8VezALRKna-5" value="" style="rounded=1;whiteSpace=wrap;html=1;strokeColor=#000000;fillColor=#028a00;verticalAlign=top;align=left;spacingLeft=10;" parent="lAG6Ie6wYtjXwY0weZwL-1" vertex="1">
                    <mxGeometry x="310" y="420" width="120" height="80" as="geometry"/>
                </mxCell>
                <mxCell id="rLCyz5ZbNa8VezALRKna-4" value="" style="rounded=1;whiteSpace=wrap;html=1;strokeColor=#000000;fillColor=#028a00;verticalAlign=top;align=left;spacingLeft=10;" parent="lAG6Ie6wYtjXwY0weZwL-1" vertex="1">
                    <mxGeometry x="180" y="420" width="120" height="80" as="geometry"/>
                </mxCell>
                <mxCell id="5h55nIKHQTAwlY_QyKw6-4" value="" style="rounded=1;whiteSpace=wrap;html=1;strokeColor=#000000;fillColor=#0066CC;arcSize=5;" parent="lAG6Ie6wYtjXwY0weZwL-1" vertex="1">
                    <mxGeometry x="40" y="40" width="540" height="260" as="geometry"/>
                </mxCell>
                <mxCell id="rLCyz5ZbNa8VezALRKna-3" value="" style="rounded=1;whiteSpace=wrap;html=1;strokeColor=#000000;fillColor=#028a00;verticalAlign=top;align=left;spacingLeft=10;" parent="lAG6Ie6wYtjXwY0weZwL-1" vertex="1">
                    <mxGeometry x="310" y="144" width="120" height="146" as="geometry"/>
                </mxCell>
                <mxCell id="5h55nIKHQTAwlY_QyKw6-31" value="" style="rounded=1;whiteSpace=wrap;html=1;strokeColor=#000000;fillColor=#0066CC;arcSize=5;" parent="lAG6Ie6wYtjXwY0weZwL-1" vertex="1">
                    <mxGeometry x="40" y="901" width="540" height="260" as="geometry"/>
                </mxCell>
                <mxCell id="5h55nIKHQTAwlY_QyKw6-19" value="" style="group;fontSize=12;" parent="lAG6Ie6wYtjXwY0weZwL-1" vertex="1" connectable="0">
                    <mxGeometry x="40" y="631" width="540" height="260" as="geometry"/>
                </mxCell>
                <mxCell id="5h55nIKHQTAwlY_QyKw6-16" value="" style="rounded=1;whiteSpace=wrap;html=1;strokeColor=#000000;fillColor=#0066CC;arcSize=5;" parent="5h55nIKHQTAwlY_QyKw6-19" vertex="1">
                    <mxGeometry width="540" height="260" as="geometry"/>
                </mxCell>
                <mxCell id="rLCyz5ZbNa8VezALRKna-7" value="" style="rounded=1;whiteSpace=wrap;html=1;strokeColor=#000000;fillColor=#028a00;verticalAlign=top;align=left;spacingLeft=10;" parent="5h55nIKHQTAwlY_QyKw6-19" vertex="1">
                    <mxGeometry x="10" y="109" width="120" height="80" as="geometry"/>
                </mxCell>
                <mxCell id="5h55nIKHQTAwlY_QyKw6-17" value="Outreach" style="text;strokeColor=none;align=left;fillColor=none;html=1;verticalAlign=middle;whiteSpace=wrap;rounded=0;fontSize=16;spacingLeft=5;" parent="5h55nIKHQTAwlY_QyKw6-19" vertex="1">
                    <mxGeometry x="2" width="120" height="30" as="geometry"/>
                </mxCell>
                <mxCell id="5h55nIKHQTAwlY_QyKw6-18" value="Group" style="text;strokeColor=none;align=left;fillColor=none;html=1;verticalAlign=middle;whiteSpace=wrap;rounded=0;spacingLeft=7;" parent="5h55nIKHQTAwlY_QyKw6-19" vertex="1">
                    <mxGeometry x="2" y="22" width="120" height="20" as="geometry"/>
                </mxCell>
                <mxCell id="5h55nIKHQTAwlY_QyKw6-21" value="" style="group" parent="5h55nIKHQTAwlY_QyKw6-19" vertex="1" connectable="0">
                    <mxGeometry x="10" y="42" width="120" height="90" as="geometry"/>
                </mxCell>
                <mxCell id="5h55nIKHQTAwlY_QyKw6-22" value="" style="sketch=0;pointerEvents=1;shadow=0;dashed=0;html=1;strokeColor=#000000;fillColor=#008a00;labelPosition=center;verticalLabelPosition=bottom;verticalAlign=top;outlineConnect=0;align=center;shape=mxgraph.office.concepts.folder;" parent="5h55nIKHQTAwlY_QyKw6-21" vertex="1">
                    <mxGeometry width="120" height="90" as="geometry"/>
                </mxCell>
                <mxCell id="5h55nIKHQTAwlY_QyKw6-23" value="Evangelism" style="text;strokeColor=none;align=left;fillColor=none;html=1;verticalAlign=middle;whiteSpace=wrap;rounded=0;fontSize=18;spacingLeft=5;" parent="5h55nIKHQTAwlY_QyKw6-21" vertex="1">
                    <mxGeometry y="20" width="120" height="30" as="geometry"/>
                </mxCell>
                <mxCell id="5h55nIKHQTAwlY_QyKw6-24" value="&lt;font style=&quot;font-size: 11px;&quot;&gt;&lt;b style=&quot;font-size: 11px;&quot;&gt;Heart To Heart&lt;/b&gt;&lt;/font&gt;" style="rounded=1;whiteSpace=wrap;html=1;strokeColor=#000000;fillColor=#C40000;fontSize=11;" parent="5h55nIKHQTAwlY_QyKw6-19" vertex="1">
                    <mxGeometry x="20" y="140" width="100" height="30" as="geometry"/>
                </mxCell>
                <mxCell id="5h55nIKHQTAwlY_QyKw6-25" value="" style="group" parent="5h55nIKHQTAwlY_QyKw6-19" vertex="1" connectable="0">
                    <mxGeometry x="140" y="42" width="120" height="90" as="geometry"/>
                </mxCell>
                <mxCell id="5h55nIKHQTAwlY_QyKw6-26" value="" style="sketch=0;pointerEvents=1;shadow=0;dashed=0;html=1;strokeColor=#000000;fillColor=#008a00;labelPosition=center;verticalLabelPosition=bottom;verticalAlign=top;outlineConnect=0;align=center;shape=mxgraph.office.concepts.folder;" parent="5h55nIKHQTAwlY_QyKw6-25" vertex="1">
                    <mxGeometry width="120" height="90" as="geometry"/>
                </mxCell>
                <mxCell id="5h55nIKHQTAwlY_QyKw6-27" value="KAVAH" style="text;strokeColor=none;align=left;fillColor=none;html=1;verticalAlign=middle;whiteSpace=wrap;rounded=0;fontSize=18;spacingLeft=5;" parent="5h55nIKHQTAwlY_QyKw6-25" vertex="1">
                    <mxGeometry y="20" width="120" height="30" as="geometry"/>
                </mxCell>
                <mxCell id="5h55nIKHQTAwlY_QyKw6-28" value="" style="group" parent="5h55nIKHQTAwlY_QyKw6-19" vertex="1" connectable="0">
                    <mxGeometry x="270" y="42" width="120" height="90" as="geometry"/>
                </mxCell>
                <mxCell id="5h55nIKHQTAwlY_QyKw6-29" value="" style="sketch=0;pointerEvents=1;shadow=0;dashed=0;html=1;strokeColor=#000000;fillColor=#008a00;labelPosition=center;verticalLabelPosition=bottom;verticalAlign=top;outlineConnect=0;align=center;shape=mxgraph.office.concepts.folder;" parent="5h55nIKHQTAwlY_QyKw6-28" vertex="1">
                    <mxGeometry width="120" height="90" as="geometry"/>
                </mxCell>
                <mxCell id="5h55nIKHQTAwlY_QyKw6-30" value="Recovery Mill" style="text;strokeColor=none;align=left;fillColor=none;html=1;verticalAlign=middle;whiteSpace=wrap;rounded=0;fontSize=18;spacingLeft=5;" parent="5h55nIKHQTAwlY_QyKw6-28" vertex="1">
                    <mxGeometry y="20" width="120" height="30" as="geometry"/>
                </mxCell>
                <mxCell id="xB9_Kp_orvP7c6XDxbsi-32" value="" style="group" parent="5h55nIKHQTAwlY_QyKw6-19" vertex="1" connectable="0">
                    <mxGeometry x="400" y="42" width="120" height="90" as="geometry"/>
                </mxCell>
                <mxCell id="xB9_Kp_orvP7c6XDxbsi-33" value="" style="sketch=0;pointerEvents=1;shadow=0;dashed=0;html=1;strokeColor=#000000;fillColor=#008a00;labelPosition=center;verticalLabelPosition=bottom;verticalAlign=top;outlineConnect=0;align=center;shape=mxgraph.office.concepts.folder;" parent="xB9_Kp_orvP7c6XDxbsi-32" vertex="1">
                    <mxGeometry width="120" height="90" as="geometry"/>
                </mxCell>
                <mxCell id="xB9_Kp_orvP7c6XDxbsi-34" value="&lt;font style=&quot;font-size: 16px;&quot;&gt;Shebrews&lt;/font&gt;" style="text;strokeColor=none;align=left;fillColor=none;html=1;verticalAlign=middle;whiteSpace=wrap;rounded=0;fontSize=18;spacingLeft=5;" parent="xB9_Kp_orvP7c6XDxbsi-32" vertex="1">
                    <mxGeometry y="20" width="120" height="30" as="geometry"/>
                </mxCell>
                <mxCell id="xB9_Kp_orvP7c6XDxbsi-35" value="Income" style="text;strokeColor=none;align=left;fillColor=none;html=1;verticalAlign=middle;whiteSpace=wrap;rounded=0;spacingLeft=7;" parent="xB9_Kp_orvP7c6XDxbsi-32" vertex="1">
                    <mxGeometry y="40" width="120" height="20" as="geometry"/>
                </mxCell>
                <mxCell id="lAG6Ie6wYtjXwY0weZwL-18" value="" style="group" parent="lAG6Ie6wYtjXwY0weZwL-1" vertex="1" connectable="0">
                    <mxGeometry x="50" y="170" width="120" height="90" as="geometry"/>
                </mxCell>
                <mxCell id="lAG6Ie6wYtjXwY0weZwL-19" value="" style="sketch=0;pointerEvents=1;shadow=0;dashed=0;html=1;strokeColor=#000000;fillColor=#008a00;labelPosition=center;verticalLabelPosition=bottom;verticalAlign=top;outlineConnect=0;align=center;shape=mxgraph.office.concepts.folder;" parent="lAG6Ie6wYtjXwY0weZwL-18" vertex="1">
                    <mxGeometry width="120" height="90" as="geometry"/>
                </mxCell>
                <mxCell id="lAG6Ie6wYtjXwY0weZwL-20" value="&lt;font style=&quot;font-size: 16px;&quot;&gt;World Missions&lt;/font&gt;" style="text;strokeColor=none;align=left;fillColor=none;html=1;verticalAlign=middle;whiteSpace=wrap;rounded=0;fontSize=18;spacingLeft=5;" parent="lAG6Ie6wYtjXwY0weZwL-18" vertex="1">
                    <mxGeometry y="20" width="120" height="30" as="geometry"/>
                </mxCell>
                <mxCell id="lAG6Ie6wYtjXwY0weZwL-22" value="" style="group" parent="lAG6Ie6wYtjXwY0weZwL-1" vertex="1" connectable="0">
                    <mxGeometry x="180" y="510" width="120" height="90" as="geometry"/>
                </mxCell>
                <mxCell id="lAG6Ie6wYtjXwY0weZwL-23" value="" style="sketch=0;pointerEvents=1;shadow=0;dashed=0;html=1;strokeColor=#000000;fillColor=#008a00;labelPosition=center;verticalLabelPosition=bottom;verticalAlign=top;outlineConnect=0;align=center;shape=mxgraph.office.concepts.folder;" parent="lAG6Ie6wYtjXwY0weZwL-22" vertex="1">
                    <mxGeometry width="120" height="90" as="geometry"/>
                </mxCell>
                <mxCell id="lAG6Ie6wYtjXwY0weZwL-24" value="Discipleship" style="text;strokeColor=none;align=left;fillColor=none;html=1;verticalAlign=middle;whiteSpace=wrap;rounded=0;fontSize=18;spacingLeft=5;" parent="lAG6Ie6wYtjXwY0weZwL-22" vertex="1">
                    <mxGeometry y="20" width="120" height="30" as="geometry"/>
                </mxCell>
                <mxCell id="lAG6Ie6wYtjXwY0weZwL-26" value="" style="group" parent="lAG6Ie6wYtjXwY0weZwL-1" vertex="1" connectable="0">
                    <mxGeometry x="440" y="360" width="120" height="90" as="geometry"/>
                </mxCell>
                <mxCell id="lAG6Ie6wYtjXwY0weZwL-27" value="" style="sketch=0;pointerEvents=1;shadow=0;dashed=0;html=1;strokeColor=#000000;fillColor=#008a00;labelPosition=center;verticalLabelPosition=bottom;verticalAlign=top;outlineConnect=0;align=center;shape=mxgraph.office.concepts.folder;" parent="lAG6Ie6wYtjXwY0weZwL-26" vertex="1">
                    <mxGeometry width="120" height="90" as="geometry"/>
                </mxCell>
                <mxCell id="lAG6Ie6wYtjXwY0weZwL-28" value="Youth" style="text;strokeColor=none;align=left;fillColor=none;html=1;verticalAlign=middle;whiteSpace=wrap;rounded=0;fontSize=18;spacingLeft=5;" parent="lAG6Ie6wYtjXwY0weZwL-26" vertex="1">
                    <mxGeometry y="20" width="120" height="30" as="geometry"/>
                </mxCell>
                <mxCell id="lAG6Ie6wYtjXwY0weZwL-50" value="" style="group" parent="lAG6Ie6wYtjXwY0weZwL-1" vertex="1" connectable="0">
                    <mxGeometry x="50" y="1051" width="120" height="90" as="geometry"/>
                </mxCell>
                <mxCell id="lAG6Ie6wYtjXwY0weZwL-51" value="" style="sketch=0;pointerEvents=1;shadow=0;dashed=0;html=1;strokeColor=#000000;fillColor=#008a00;labelPosition=center;verticalLabelPosition=bottom;verticalAlign=top;outlineConnect=0;align=center;shape=mxgraph.office.concepts.folder;" parent="lAG6Ie6wYtjXwY0weZwL-50" vertex="1">
                    <mxGeometry width="120" height="90" as="geometry"/>
                </mxCell>
                <mxCell id="lAG6Ie6wYtjXwY0weZwL-52" value="Unallocated" style="text;strokeColor=none;align=left;fillColor=none;html=1;verticalAlign=middle;whiteSpace=wrap;rounded=0;fontSize=18;spacingLeft=5;" parent="lAG6Ie6wYtjXwY0weZwL-50" vertex="1">
                    <mxGeometry y="20" width="120" height="30" as="geometry"/>
                </mxCell>
                <mxCell id="lAG6Ie6wYtjXwY0weZwL-53" value="Income" style="text;strokeColor=none;align=left;fillColor=none;html=1;verticalAlign=middle;whiteSpace=wrap;rounded=0;spacingLeft=7;" parent="lAG6Ie6wYtjXwY0weZwL-50" vertex="1">
                    <mxGeometry y="40" width="120" height="20" as="geometry"/>
                </mxCell>
                <mxCell id="xB9_Kp_orvP7c6XDxbsi-4" value="" style="group" parent="lAG6Ie6wYtjXwY0weZwL-1" vertex="1" connectable="0">
                    <mxGeometry x="440" y="70" width="120" height="90" as="geometry"/>
                </mxCell>
                <mxCell id="xB9_Kp_orvP7c6XDxbsi-5" value="" style="sketch=0;pointerEvents=1;shadow=0;dashed=0;html=1;strokeColor=#000000;fillColor=#008a00;labelPosition=center;verticalLabelPosition=bottom;verticalAlign=top;outlineConnect=0;align=center;shape=mxgraph.office.concepts.folder;" parent="xB9_Kp_orvP7c6XDxbsi-4" vertex="1">
                    <mxGeometry width="120" height="90" as="geometry"/>
                </mxCell>
                <mxCell id="xB9_Kp_orvP7c6XDxbsi-6" value="Medi/Worship" style="text;strokeColor=none;align=left;fillColor=none;html=1;verticalAlign=middle;whiteSpace=wrap;rounded=0;fontSize=16;spacingLeft=5;" parent="xB9_Kp_orvP7c6XDxbsi-4" vertex="1">
                    <mxGeometry y="20" width="120" height="30" as="geometry"/>
                </mxCell>
                <mxCell id="xB9_Kp_orvP7c6XDxbsi-16" value="" style="group" parent="lAG6Ie6wYtjXwY0weZwL-1" vertex="1" connectable="0">
                    <mxGeometry x="310" y="510" width="120" height="90" as="geometry"/>
                </mxCell>
                <mxCell id="xB9_Kp_orvP7c6XDxbsi-17" value="" style="sketch=0;pointerEvents=1;shadow=0;dashed=0;html=1;strokeColor=#000000;fillColor=#008a00;labelPosition=center;verticalLabelPosition=bottom;verticalAlign=top;outlineConnect=0;align=center;shape=mxgraph.office.concepts.folder;" parent="xB9_Kp_orvP7c6XDxbsi-16" vertex="1">
                    <mxGeometry width="120" height="90" as="geometry"/>
                </mxCell>
                <mxCell id="xB9_Kp_orvP7c6XDxbsi-18" value="Single Moms" style="text;strokeColor=none;align=left;fillColor=none;html=1;verticalAlign=middle;whiteSpace=wrap;rounded=0;fontSize=18;spacingLeft=5;" parent="xB9_Kp_orvP7c6XDxbsi-16" vertex="1">
                    <mxGeometry y="20" width="120" height="30" as="geometry"/>
                </mxCell>
                <mxCell id="xB9_Kp_orvP7c6XDxbsi-20" value="" style="group" parent="lAG6Ie6wYtjXwY0weZwL-1" vertex="1" connectable="0">
                    <mxGeometry x="50" y="943" width="120" height="90" as="geometry"/>
                </mxCell>
                <mxCell id="xB9_Kp_orvP7c6XDxbsi-21" value="" style="sketch=0;pointerEvents=1;shadow=0;dashed=0;html=1;strokeColor=#000000;fillColor=#008a00;labelPosition=center;verticalLabelPosition=bottom;verticalAlign=top;outlineConnect=0;align=center;shape=mxgraph.office.concepts.folder;" parent="xB9_Kp_orvP7c6XDxbsi-20" vertex="1">
                    <mxGeometry width="120" height="90" as="geometry"/>
                </mxCell>
                <mxCell id="xB9_Kp_orvP7c6XDxbsi-22" value="Banners" style="text;strokeColor=none;align=left;fillColor=none;html=1;verticalAlign=middle;whiteSpace=wrap;rounded=0;fontSize=16;spacingLeft=5;" parent="xB9_Kp_orvP7c6XDxbsi-20" vertex="1">
                    <mxGeometry y="20" width="120" height="30" as="geometry"/>
                </mxCell>
                <mxCell id="xB9_Kp_orvP7c6XDxbsi-23" value="Income" style="text;strokeColor=none;align=left;fillColor=none;html=1;verticalAlign=middle;whiteSpace=wrap;rounded=0;spacingLeft=7;" parent="xB9_Kp_orvP7c6XDxbsi-20" vertex="1">
                    <mxGeometry y="40" width="120" height="20" as="geometry"/>
                </mxCell>
                <mxCell id="xB9_Kp_orvP7c6XDxbsi-24" value="" style="group" parent="lAG6Ie6wYtjXwY0weZwL-1" vertex="1" connectable="0">
                    <mxGeometry x="180" y="943" width="120" height="90" as="geometry"/>
                </mxCell>
                <mxCell id="xB9_Kp_orvP7c6XDxbsi-25" value="" style="sketch=0;pointerEvents=1;shadow=0;dashed=0;html=1;strokeColor=#000000;fillColor=#008a00;labelPosition=center;verticalLabelPosition=bottom;verticalAlign=top;outlineConnect=0;align=center;shape=mxgraph.office.concepts.folder;" parent="xB9_Kp_orvP7c6XDxbsi-24" vertex="1">
                    <mxGeometry width="120" height="90" as="geometry"/>
                </mxCell>
                <mxCell id="xB9_Kp_orvP7c6XDxbsi-26" value="Benevolence" style="text;strokeColor=none;align=left;fillColor=none;html=1;verticalAlign=middle;whiteSpace=wrap;rounded=0;fontSize=16;spacingLeft=5;" parent="xB9_Kp_orvP7c6XDxbsi-24" vertex="1">
                    <mxGeometry y="20" width="120" height="30" as="geometry"/>
                </mxCell>
                <mxCell id="xB9_Kp_orvP7c6XDxbsi-27" value="Income" style="text;strokeColor=none;align=left;fillColor=none;html=1;verticalAlign=middle;whiteSpace=wrap;rounded=0;spacingLeft=7;" parent="xB9_Kp_orvP7c6XDxbsi-24" vertex="1">
                    <mxGeometry y="40" width="120" height="20" as="geometry"/>
                </mxCell>
                <mxCell id="xB9_Kp_orvP7c6XDxbsi-40" value="" style="group" parent="lAG6Ie6wYtjXwY0weZwL-1" vertex="1" connectable="0">
                    <mxGeometry x="310" y="943" width="120" height="90" as="geometry"/>
                </mxCell>
                <mxCell id="xB9_Kp_orvP7c6XDxbsi-41" value="" style="sketch=0;pointerEvents=1;shadow=0;dashed=0;html=1;strokeColor=#000000;fillColor=#008a00;labelPosition=center;verticalLabelPosition=bottom;verticalAlign=top;outlineConnect=0;align=center;shape=mxgraph.office.concepts.folder;" parent="xB9_Kp_orvP7c6XDxbsi-40" vertex="1">
                    <mxGeometry width="120" height="90" as="geometry"/>
                </mxCell>
                <mxCell id="xB9_Kp_orvP7c6XDxbsi-42" value="Guest Speak." style="text;strokeColor=none;align=left;fillColor=none;html=1;verticalAlign=middle;whiteSpace=wrap;rounded=0;fontSize=16;spacingLeft=5;" parent="xB9_Kp_orvP7c6XDxbsi-40" vertex="1">
                    <mxGeometry y="20" width="120" height="30" as="geometry"/>
                </mxCell>
                <mxCell id="xB9_Kp_orvP7c6XDxbsi-43" value="Income" style="text;strokeColor=none;align=left;fillColor=none;html=1;verticalAlign=middle;whiteSpace=wrap;rounded=0;spacingLeft=7;" parent="xB9_Kp_orvP7c6XDxbsi-40" vertex="1">
                    <mxGeometry y="40" width="120" height="20" as="geometry"/>
                </mxCell>
                <mxCell id="xB9_Kp_orvP7c6XDxbsi-44" value="" style="group" parent="lAG6Ie6wYtjXwY0weZwL-1" vertex="1" connectable="0">
                    <mxGeometry x="440" y="943" width="120" height="90" as="geometry"/>
                </mxCell>
                <mxCell id="xB9_Kp_orvP7c6XDxbsi-45" value="" style="sketch=0;pointerEvents=1;shadow=0;dashed=0;html=1;strokeColor=#000000;fillColor=#008a00;labelPosition=center;verticalLabelPosition=bottom;verticalAlign=top;outlineConnect=0;align=center;shape=mxgraph.office.concepts.folder;" parent="xB9_Kp_orvP7c6XDxbsi-44" vertex="1">
                    <mxGeometry width="120" height="90" as="geometry"/>
                </mxCell>
                <mxCell id="xB9_Kp_orvP7c6XDxbsi-46" value="Love Offering" style="text;strokeColor=none;align=left;fillColor=none;html=1;verticalAlign=middle;whiteSpace=wrap;rounded=0;fontSize=16;spacingLeft=5;" parent="xB9_Kp_orvP7c6XDxbsi-44" vertex="1">
                    <mxGeometry y="20" width="120" height="30" as="geometry"/>
                </mxCell>
                <mxCell id="xB9_Kp_orvP7c6XDxbsi-47" value="Income" style="text;strokeColor=none;align=left;fillColor=none;html=1;verticalAlign=middle;whiteSpace=wrap;rounded=0;spacingLeft=7;" parent="xB9_Kp_orvP7c6XDxbsi-44" vertex="1">
                    <mxGeometry y="40" width="120" height="20" as="geometry"/>
                </mxCell>
                <mxCell id="xB9_Kp_orvP7c6XDxbsi-56" value="" style="group" parent="lAG6Ie6wYtjXwY0weZwL-1" vertex="1" connectable="0">
                    <mxGeometry x="440" y="510" width="120" height="90" as="geometry"/>
                </mxCell>
                <mxCell id="xB9_Kp_orvP7c6XDxbsi-57" value="" style="sketch=0;pointerEvents=1;shadow=0;dashed=0;html=1;strokeColor=#000000;fillColor=#008a00;labelPosition=center;verticalLabelPosition=bottom;verticalAlign=top;outlineConnect=0;align=center;shape=mxgraph.office.concepts.folder;" parent="xB9_Kp_orvP7c6XDxbsi-56" vertex="1">
                    <mxGeometry width="120" height="90" as="geometry"/>
                </mxCell>
                <mxCell id="xB9_Kp_orvP7c6XDxbsi-58" value="Tribe" style="text;strokeColor=none;align=left;fillColor=none;html=1;verticalAlign=middle;whiteSpace=wrap;rounded=0;fontSize=18;spacingLeft=5;" parent="xB9_Kp_orvP7c6XDxbsi-56" vertex="1">
                    <mxGeometry y="20" width="120" height="30" as="geometry"/>
                </mxCell>
                <mxCell id="lAG6Ie6wYtjXwY0weZwL-10" value="" style="group" parent="lAG6Ie6wYtjXwY0weZwL-1" vertex="1" connectable="0">
                    <mxGeometry x="310" y="70" width="120" height="90" as="geometry"/>
                </mxCell>
                <mxCell id="lAG6Ie6wYtjXwY0weZwL-11" value="" style="sketch=0;pointerEvents=1;shadow=0;dashed=0;html=1;strokeColor=#000000;fillColor=#008a00;labelPosition=center;verticalLabelPosition=bottom;verticalAlign=top;outlineConnect=0;align=center;shape=mxgraph.office.concepts.folder;" parent="lAG6Ie6wYtjXwY0weZwL-10" vertex="1">
                    <mxGeometry width="120" height="90" as="geometry"/>
                </mxCell>
                <mxCell id="lAG6Ie6wYtjXwY0weZwL-12" value="General Fund" style="text;strokeColor=none;align=left;fillColor=none;html=1;verticalAlign=middle;whiteSpace=wrap;rounded=0;fontSize=16;spacingLeft=5;" parent="lAG6Ie6wYtjXwY0weZwL-10" vertex="1">
                    <mxGeometry y="20" width="120" height="30" as="geometry"/>
                </mxCell>
                <mxCell id="sbIQXhrWU7MQF_AkLyQ8-2" value="General" style="text;strokeColor=none;align=left;fillColor=none;html=1;verticalAlign=middle;whiteSpace=wrap;rounded=0;fontSize=16;spacingLeft=5;" parent="lAG6Ie6wYtjXwY0weZwL-1" vertex="1">
                    <mxGeometry x="40" y="40" width="120" height="30" as="geometry"/>
                </mxCell>
                <mxCell id="sbIQXhrWU7MQF_AkLyQ8-3" value="Group" style="text;strokeColor=none;align=left;fillColor=none;html=1;verticalAlign=middle;whiteSpace=wrap;rounded=0;spacingLeft=7;" parent="lAG6Ie6wYtjXwY0weZwL-1" vertex="1">
                    <mxGeometry x="40" y="60" width="120" height="20" as="geometry"/>
                </mxCell>
                <mxCell id="5h55nIKHQTAwlY_QyKw6-7" value="" style="group" parent="lAG6Ie6wYtjXwY0weZwL-1" vertex="1" connectable="0">
                    <mxGeometry x="50" y="70" width="120" height="90" as="geometry"/>
                </mxCell>
                <mxCell id="lAG6Ie6wYtjXwY0weZwL-3" value="" style="sketch=0;pointerEvents=1;shadow=0;dashed=0;html=1;strokeColor=#000000;fillColor=#008a00;labelPosition=center;verticalLabelPosition=bottom;verticalAlign=top;outlineConnect=0;align=center;shape=mxgraph.office.concepts.folder;" parent="5h55nIKHQTAwlY_QyKw6-7" vertex="1">
                    <mxGeometry width="120" height="90" as="geometry"/>
                </mxCell>
                <mxCell id="lAG6Ie6wYtjXwY0weZwL-4" value="Tithes" style="text;strokeColor=none;align=left;fillColor=none;html=1;verticalAlign=middle;whiteSpace=wrap;rounded=0;fontSize=16;spacingLeft=5;" parent="5h55nIKHQTAwlY_QyKw6-7" vertex="1">
                    <mxGeometry y="20" width="120" height="30" as="geometry"/>
                </mxCell>
                <mxCell id="5h55nIKHQTAwlY_QyKw6-8" value="" style="group" parent="lAG6Ie6wYtjXwY0weZwL-1" vertex="1" connectable="0">
                    <mxGeometry x="180" y="70" width="120" height="90" as="geometry"/>
                </mxCell>
                <mxCell id="xB9_Kp_orvP7c6XDxbsi-29" value="" style="sketch=0;pointerEvents=1;shadow=0;dashed=0;html=1;strokeColor=#000000;fillColor=#008a00;labelPosition=center;verticalLabelPosition=bottom;verticalAlign=top;outlineConnect=0;align=center;shape=mxgraph.office.concepts.folder;" parent="5h55nIKHQTAwlY_QyKw6-8" vertex="1">
                    <mxGeometry width="120" height="90" as="geometry"/>
                </mxCell>
                <mxCell id="xB9_Kp_orvP7c6XDxbsi-30" value="Book Store" style="text;strokeColor=none;align=left;fillColor=none;html=1;verticalAlign=middle;whiteSpace=wrap;rounded=0;fontSize=16;spacingLeft=5;" parent="5h55nIKHQTAwlY_QyKw6-8" vertex="1">
                    <mxGeometry y="20" width="120" height="30" as="geometry"/>
                </mxCell>
                <mxCell id="5h55nIKHQTAwlY_QyKw6-9" value="&lt;font style=&quot;font-size: 11px;&quot;&gt;&lt;b style=&quot;font-size: 11px;&quot;&gt;Rent&lt;/b&gt;&lt;/font&gt;" style="rounded=1;whiteSpace=wrap;html=1;strokeColor=#000000;fillColor=#C40000;fontSize=11;" parent="lAG6Ie6wYtjXwY0weZwL-1" vertex="1">
                    <mxGeometry x="320" y="170" width="100" height="30" as="geometry"/>
                </mxCell>
                <mxCell id="5h55nIKHQTAwlY_QyKw6-10" value="&lt;font style=&quot;font-size: 11px;&quot;&gt;&lt;b style=&quot;font-size: 11px;&quot;&gt;Earned Income&lt;/b&gt;&lt;/font&gt;" style="rounded=1;whiteSpace=wrap;html=1;strokeColor=#000000;fillColor=#C40000;fontSize=11;" parent="lAG6Ie6wYtjXwY0weZwL-1" vertex="1">
                    <mxGeometry x="320" y="204" width="100" height="30" as="geometry"/>
                </mxCell>
                <mxCell id="5h55nIKHQTAwlY_QyKw6-2" value="Small Groups" style="text;strokeColor=none;align=left;fillColor=none;html=1;verticalAlign=middle;whiteSpace=wrap;rounded=0;fontSize=16;spacingLeft=5;" parent="lAG6Ie6wYtjXwY0weZwL-1" vertex="1">
                    <mxGeometry x="42" y="310" width="120" height="30" as="geometry"/>
                </mxCell>
                <mxCell id="lAG6Ie6wYtjXwY0weZwL-14" value="" style="group" parent="lAG6Ie6wYtjXwY0weZwL-1" vertex="1" connectable="0">
                    <mxGeometry x="50" y="360" width="120" height="90" as="geometry"/>
                </mxCell>
                <mxCell id="lAG6Ie6wYtjXwY0weZwL-15" value="" style="sketch=0;pointerEvents=1;shadow=0;dashed=0;html=1;strokeColor=#000000;fillColor=#008a00;labelPosition=center;verticalLabelPosition=bottom;verticalAlign=top;outlineConnect=0;align=center;shape=mxgraph.office.concepts.folder;" parent="lAG6Ie6wYtjXwY0weZwL-14" vertex="1">
                    <mxGeometry width="120" height="90" as="geometry"/>
                </mxCell>
                <mxCell id="lAG6Ie6wYtjXwY0weZwL-16" value="Kids World" style="text;strokeColor=none;align=left;fillColor=none;html=1;verticalAlign=middle;whiteSpace=wrap;rounded=0;fontSize=16;spacingLeft=5;" parent="lAG6Ie6wYtjXwY0weZwL-14" vertex="1">
                    <mxGeometry y="20" width="120" height="30" as="geometry"/>
                </mxCell>
                <mxCell id="xB9_Kp_orvP7c6XDxbsi-8" value="" style="group" parent="lAG6Ie6wYtjXwY0weZwL-1" vertex="1" connectable="0">
                    <mxGeometry x="180" y="360" width="120" height="90" as="geometry"/>
                </mxCell>
                <mxCell id="xB9_Kp_orvP7c6XDxbsi-9" value="" style="sketch=0;pointerEvents=1;shadow=0;dashed=0;html=1;strokeColor=#000000;fillColor=#008a00;labelPosition=center;verticalLabelPosition=bottom;verticalAlign=top;outlineConnect=0;align=center;shape=mxgraph.office.concepts.folder;" parent="xB9_Kp_orvP7c6XDxbsi-8" vertex="1">
                    <mxGeometry width="120" height="90" as="geometry"/>
                </mxCell>
                <mxCell id="xB9_Kp_orvP7c6XDxbsi-10" value="Mens Minis." style="text;strokeColor=none;align=left;fillColor=none;html=1;verticalAlign=middle;whiteSpace=wrap;rounded=0;fontSize=16;spacingLeft=5;" parent="xB9_Kp_orvP7c6XDxbsi-8" vertex="1">
                    <mxGeometry y="20" width="120" height="30" as="geometry"/>
                </mxCell>
                <mxCell id="xB9_Kp_orvP7c6XDxbsi-12" value="" style="group" parent="lAG6Ie6wYtjXwY0weZwL-1" vertex="1" connectable="0">
                    <mxGeometry x="310" y="360" width="120" height="90" as="geometry"/>
                </mxCell>
                <mxCell id="xB9_Kp_orvP7c6XDxbsi-13" value="" style="sketch=0;pointerEvents=1;shadow=0;dashed=0;html=1;strokeColor=#000000;fillColor=#008a00;labelPosition=center;verticalLabelPosition=bottom;verticalAlign=top;outlineConnect=0;align=center;shape=mxgraph.office.concepts.folder;" parent="xB9_Kp_orvP7c6XDxbsi-12" vertex="1">
                    <mxGeometry width="120" height="90" as="geometry"/>
                </mxCell>
                <mxCell id="xB9_Kp_orvP7c6XDxbsi-14" value="&lt;font style=&quot;font-size: 16px;&quot;&gt;Womens Minis.&lt;/font&gt;" style="text;strokeColor=none;align=left;fillColor=none;html=1;verticalAlign=middle;whiteSpace=wrap;rounded=0;fontSize=18;spacingLeft=5;" parent="xB9_Kp_orvP7c6XDxbsi-12" vertex="1">
                    <mxGeometry y="20" width="120" height="30" as="geometry"/>
                </mxCell>
                <mxCell id="xB9_Kp_orvP7c6XDxbsi-0" value="" style="group" parent="lAG6Ie6wYtjXwY0weZwL-1" vertex="1" connectable="0">
                    <mxGeometry x="50" y="510" width="120" height="90" as="geometry"/>
                </mxCell>
                <mxCell id="xB9_Kp_orvP7c6XDxbsi-1" value="" style="sketch=0;pointerEvents=1;shadow=0;dashed=0;html=1;strokeColor=#000000;fillColor=#008a00;labelPosition=center;verticalLabelPosition=bottom;verticalAlign=top;outlineConnect=0;align=center;shape=mxgraph.office.concepts.folder;" parent="xB9_Kp_orvP7c6XDxbsi-0" vertex="1">
                    <mxGeometry width="120" height="90" as="geometry"/>
                </mxCell>
                <mxCell id="xB9_Kp_orvP7c6XDxbsi-2" value="OASIS" style="text;strokeColor=none;align=left;fillColor=none;html=1;verticalAlign=middle;whiteSpace=wrap;rounded=0;fontSize=16;spacingLeft=5;" parent="xB9_Kp_orvP7c6XDxbsi-0" vertex="1">
                    <mxGeometry y="20" width="120" height="30" as="geometry"/>
                </mxCell>
                <mxCell id="5h55nIKHQTAwlY_QyKw6-12" value="Group" style="text;strokeColor=none;align=left;fillColor=none;html=1;verticalAlign=middle;whiteSpace=wrap;rounded=0;spacingLeft=7;" parent="lAG6Ie6wYtjXwY0weZwL-1" vertex="1">
                    <mxGeometry x="42" y="332" width="120" height="20" as="geometry"/>
                </mxCell>
                <mxCell id="5h55nIKHQTAwlY_QyKw6-13" value="&lt;font style=&quot;font-size: 11px;&quot;&gt;&lt;b style=&quot;font-size: 11px;&quot;&gt;MACH1&lt;/b&gt;&lt;/font&gt;" style="rounded=1;whiteSpace=wrap;html=1;strokeColor=#000000;fillColor=#C40000;fontSize=11;" parent="lAG6Ie6wYtjXwY0weZwL-1" vertex="1">
                    <mxGeometry x="190" y="460" width="100" height="30" as="geometry"/>
                </mxCell>
                <mxCell id="5h55nIKHQTAwlY_QyKw6-14" value="&lt;font style=&quot;font-size: 11px;&quot;&gt;&lt;b style=&quot;font-size: 11px;&quot;&gt;GiG&lt;/b&gt;&lt;/font&gt;" style="rounded=1;whiteSpace=wrap;html=1;strokeColor=#000000;fillColor=#C40000;fontSize=11;" parent="lAG6Ie6wYtjXwY0weZwL-1" vertex="1">
                    <mxGeometry x="320" y="460" width="100" height="30" as="geometry"/>
                </mxCell>
                <mxCell id="5h55nIKHQTAwlY_QyKw6-15" value="&lt;font style=&quot;font-size: 11px;&quot;&gt;&lt;b style=&quot;font-size: 11px;&quot;&gt;RAMP&lt;/b&gt;&lt;/font&gt;" style="rounded=1;whiteSpace=wrap;html=1;strokeColor=#000000;fillColor=#C40000;fontSize=11;" parent="lAG6Ie6wYtjXwY0weZwL-1" vertex="1">
                    <mxGeometry x="450" y="460" width="100" height="30" as="geometry"/>
                </mxCell>
                <mxCell id="5h55nIKHQTAwlY_QyKw6-20" value="&lt;font style=&quot;font-size: 11px;&quot;&gt;&lt;b style=&quot;font-size: 11px;&quot;&gt;Debt Reduction&lt;/b&gt;&lt;/font&gt;" style="rounded=1;whiteSpace=wrap;html=1;strokeColor=#000000;fillColor=#C40000;fontSize=11;" parent="lAG6Ie6wYtjXwY0weZwL-1" vertex="1">
                    <mxGeometry x="320" y="240" width="100" height="30" as="geometry"/>
                </mxCell>
                <mxCell id="5h55nIKHQTAwlY_QyKw6-50" value="Miscellaneous" style="text;strokeColor=none;align=left;fillColor=none;html=1;verticalAlign=middle;whiteSpace=wrap;rounded=0;fontSize=16;spacingLeft=5;" parent="lAG6Ie6wYtjXwY0weZwL-1" vertex="1">
                    <mxGeometry x="42" y="901" width="120" height="30" as="geometry"/>
                </mxCell>
                <mxCell id="5h55nIKHQTAwlY_QyKw6-51" value="Group" style="text;strokeColor=none;align=left;fillColor=none;html=1;verticalAlign=middle;whiteSpace=wrap;rounded=0;spacingLeft=7;" parent="lAG6Ie6wYtjXwY0weZwL-1" vertex="1">
                    <mxGeometry x="42" y="923" width="120" height="20" as="geometry"/>
                </mxCell>
                <mxCell id="rLCyz5ZbNa8VezALRKna-0" value="&lt;span style=&quot;font-size: 15px;&quot;&gt;&lt;b&gt;Account&lt;/b&gt;&lt;/span&gt;" style="rounded=1;whiteSpace=wrap;html=1;strokeColor=#000000;fillColor=#0166cc;verticalAlign=top;align=left;spacingLeft=10;" parent="lAG6Ie6wYtjXwY0weZwL-1" vertex="1">
                    <mxGeometry x="590" y="100" width="250" height="280" as="geometry"/>
                </mxCell>
                <mxCell id="rLCyz5ZbNa8VezALRKna-1" value="&lt;font size=&quot;1&quot; style=&quot;&quot;&gt;&lt;b style=&quot;font-size: 15px;&quot;&gt;Ministry&lt;/b&gt;&lt;/font&gt;" style="rounded=1;whiteSpace=wrap;html=1;strokeColor=#000000;fillColor=#028a00;verticalAlign=top;align=left;spacingLeft=10;" parent="lAG6Ie6wYtjXwY0weZwL-1" vertex="1">
                    <mxGeometry x="600" y="200" width="240" height="180" as="geometry"/>
                </mxCell>
                <mxCell id="rLCyz5ZbNa8VezALRKna-2" value="&lt;font size=&quot;1&quot; style=&quot;&quot;&gt;&lt;b style=&quot;font-size: 15px;&quot;&gt;Cause&lt;/b&gt;&lt;/font&gt;" style="rounded=1;whiteSpace=wrap;html=1;strokeColor=#000000;fillColor=#C40000;verticalAlign=top;align=left;spacingLeft=10;" parent="lAG6Ie6wYtjXwY0weZwL-1" vertex="1">
                    <mxGeometry x="620" y="290" width="220" height="90" as="geometry"/>
                </mxCell>
                <mxCell id="rLCyz5ZbNa8VezALRKna-8" value="Includes any funds dedicated directly to this Group (general account), plus the rollup from any funds in an associated Ministry (sub-account)" style="text;strokeColor=none;align=left;fillColor=none;html=1;verticalAlign=top;whiteSpace=wrap;rounded=0;fontSize=11;spacingLeft=10;" parent="lAG6Ie6wYtjXwY0weZwL-1" vertex="1">
                    <mxGeometry x="590" y="120" width="250" height="60" as="geometry"/>
                </mxCell>
                <mxCell id="rLCyz5ZbNa8VezALRKna-9" value="Includes any funds dedicated directly to this Ministry (sub-account), plus the rollup from any funds in a associated Cause (sub-sub-account)" style="text;strokeColor=none;align=left;fillColor=none;html=1;verticalAlign=top;whiteSpace=wrap;rounded=0;fontSize=11;spacingLeft=10;" parent="lAG6Ie6wYtjXwY0weZwL-1" vertex="1">
                    <mxGeometry x="600" y="220" width="240" height="60" as="geometry"/>
                </mxCell>
                <mxCell id="rLCyz5ZbNa8VezALRKna-10" value="Includes any funds dedicated directly to this Cause" style="text;strokeColor=none;align=left;fillColor=none;html=1;verticalAlign=top;whiteSpace=wrap;rounded=0;fontSize=11;spacingLeft=10;" parent="lAG6Ie6wYtjXwY0weZwL-1" vertex="1">
                    <mxGeometry x="620" y="305" width="220" height="60" as="geometry"/>
                </mxCell>
            </root>
        </mxGraphModel>
    </diagram>
</mxfile>